<?xml version="1.0" encoding="UTF-8" standalone="no"?>
<svg
   xmlns:dc="http://purl.org/dc/elements/1.1/"
   xmlns:cc="http://creativecommons.org/ns#"
   xmlns:rdf="http://www.w3.org/1999/02/22-rdf-syntax-ns#"
   xmlns:svg="http://www.w3.org/2000/svg"
   xmlns="http://www.w3.org/2000/svg"
   xmlns:sodipodi="http://sodipodi.sourceforge.net/DTD/sodipodi-0.dtd"
   xmlns:inkscape="http://www.inkscape.org/namespaces/inkscape"
   width="210mm"
   height="297mm"
   viewBox="0 0 210 297"
   version="1.1"
   id="svg16"
   inkscape:version="1.0.2-2 (e86c870879, 2021-01-15)"
   sodipodi:docname="Logotip.svg">
  <defs
     id="defs10">
    <inkscape:perspective
       sodipodi:type="inkscape:persp3d"
       inkscape:vp_x="0 : 148.5 : 1"
       inkscape:vp_y="0 : 1000 : 0"
       inkscape:vp_z="210 : 148.5 : 1"
       inkscape:persp3d-origin="105 : 99 : 1"
       id="perspective84" />
  </defs>
  <sodipodi:namedview
     id="base"
     pagecolor="#ffffff"
     bordercolor="#666666"
     borderopacity="1.0"
     inkscape:pageopacity="0.0"
     inkscape:pageshadow="2"
     inkscape:zoom="0.12374369"
     inkscape:cx="-3074.8838"
     inkscape:cy="-183.42149"
     inkscape:document-units="mm"
     inkscape:current-layer="layer1"
     inkscape:document-rotation="0"
     showgrid="false"
     inkscape:window-width="1920"
     inkscape:window-height="991"
     inkscape:window-x="-9"
     inkscape:window-y="-9"
     inkscape:window-maximized="1" />
  <metadata
     id="metadata13">
    <rdf:RDF>
      <cc:Work
         rdf:about="">
        <dc:format>image/svg+xml</dc:format>
        <dc:type
           rdf:resource="http://purl.org/dc/dcmitype/StillImage" />
        <dc:title />
      </cc:Work>
    </rdf:RDF>
  </metadata>
  <g
     inkscape:label="Layer 1"
     inkscape:groupmode="layer"
     id="layer1"
     style="display:inline">
    <circle
       style="fill:#66ff00;stroke-width:0.264583"
       id="path61"
       sodipodi:type="arc"
       sodipodi:cx="-606.2738"
       sodipodi:cy="241.52678"
       sodipodi:rx="70.303574"
       sodipodi:ry="23.056549"
       sodipodi:start="0"
       sodipodi:end="0.0040198947"
       sodipodi:arc-type="slice"
       d="m -535.97023,241.52678 a 70.303574,23.056549 0 0 1 -5.7e-4,0.0927 l -70.303,-0.0927 z" />
    <path
       id="path281"
       style="fill:none;stroke-width:0.474258"
       d="m -503.46436,25.324183 a 124.35413,125.29907 0 0 0 -124.35416,125.299327 124.35413,125.29907 0 0 0 124.35416,125.29934 124.35413,125.29907 0 0 0 82.77014,-31.78774 c -0.18587,-0.46191 -0.32642,-1.04953 -0.46198,-1.94613 -0.0286,-0.18912 -0.0308,-0.37945 -0.0196,-0.56999 -0.60703,-1.24137 -1.12008,-2.47026 -0.17622,-1.40353 -0.028,-0.39275 -0.01,-0.76864 0.0537,-1.15549 -0.0101,-0.61443 -0.009,-0.76202 -0.009,-1.33118 1.7e-4,-0.34624 0.007,-0.70843 0.005,-0.90899 -9.3e-4,-0.29832 0,-0.59672 0,-0.89504 -0.003,-3.24354 0.14165,-1.55908 7.17682,-4.99194 -0.25413,-0.29222 -0.5067,-0.58634 -0.78238,-0.90796 v 0.001 c -1.89407,-2.20976 -0.95112,-4.21558 0.7183,-4.20904 0.32093,0.001 0.66928,0.0821 1.02888,0.24494 -0.057,-0.12967 -0.10875,-0.26173 -0.14573,-0.39946 -0.0252,-0.094 -0.16638,-0.26238 -0.0713,-0.28318 0.003,-5.3e-4 0.005,-0.001 0.008,-0.002 -0.005,-0.0101 -0.01,-0.0205 -0.015,-0.0305 0.0165,-0.48268 0.0219,-0.41507 0.57412,-0.28784 -0.0456,-0.18798 -0.0914,-0.37573 -0.14159,-0.56275 -0.0249,-0.0927 -0.0539,-0.18494 -0.0755,-0.27854 -0.0364,-0.15781 -0.0659,-0.31683 -0.0987,-0.47542 -0.0353,-0.20219 -0.0724,-0.36889 -0.0801,-0.57206 -0.002,-0.0467 0.008,-0.0935 0.008,-0.14004 -0.0225,-0.0769 -0.0459,-0.15324 -0.0651,-0.231 -0.0114,-0.0462 -0.066,-0.11997 -0.0233,-0.14108 0.002,-7.9e-4 0.003,-0.001 0.004,-0.002 -0.009,-0.0476 -0.0185,-0.0929 -0.0217,-0.10904 -0.0401,-0.18931 -0.0195,-0.20351 0.1788,-0.16795 -6.6e-4,-0.0162 -0.003,-0.0323 -0.003,-0.0486 -10e-4,-0.0372 -0.002,-0.0744 -0.004,-0.11162 -0.001,-0.0351 -0.012,-0.0712 -0.004,-0.10542 0.0283,-0.11642 0.0752,-0.22778 0.11265,-0.34159 0.1082,-0.10934 0.20685,-0.23222 0.38706,-0.22272 0.0257,0.001 0.0528,0.005 0.0822,0.0124 0.38766,0.0951 0.42137,0.25105 0.46767,0.52813 0.007,0.0422 -0.002,0.0859 -0.003,0.12868 0.0172,0.0646 0.0205,0.13235 0.0269,0.19895 0.002,0.0181 -0.002,0.0361 -0.003,0.0543 -1.3e-4,0.002 -3.9e-4,0.002 -5.2e-4,0.004 0.0279,0.0603 0.0404,0.0846 0.062,0.14521 0.0319,0.0314 0.0618,0.0651 0.0822,0.10439 -0.0194,0.001 -0.006,-0.001 0.0248,0.0305 0.0581,0.059 0.10623,0.10542 0.15762,0.18242 0.023,0.0502 0.0473,0.0995 0.0687,0.15038 0.004,0.009 0.0151,0.0329 0.006,0.0289 -0.018,-0.008 -0.0259,-0.0298 -0.0398,-0.0439 -0.003,-0.003 0.0109,0.0129 0.007,0.0109 -0.018,-0.0116 -0.0656,-0.0551 -0.0512,-0.0393 0.0396,0.0433 0.0848,0.0818 0.12713,0.12248 0.0276,0.15608 0.0238,0.32103 0.0827,0.46818 0.0263,0.0657 0.0127,-0.11809 0.0145,-0.20464 -0.0115,-0.0275 -0.018,-0.0395 -5.2e-4,-0.0217 -3e-4,0.005 6.4e-4,0.0157 5.2e-4,0.0217 0.006,0.0144 0.0113,0.026 0.0196,0.0543 0.0238,0.0804 6.3e-4,0.0265 0.0372,0.0982 0.0161,0.0332 0.0295,0.0662 0.0439,0.0987 0.0799,-2.6e-4 0.14449,-0.002 0.22582,0.0103 0.15344,0.0224 0.23113,0.0331 0.34985,0.13177 0.0205,0.017 0.0334,0.0412 0.0501,0.062 0.0158,0.0381 0.0326,0.0762 0.0475,0.11472 0.004,0.01 10e-4,0.0205 0.004,0.0305 0.0135,0.0477 0.0344,0.0939 0.0398,0.14365 0.006,0.0338 0.0132,0.0671 0.017,0.10129 5e-5,5.3e-4 -10e-4,-2.4e-4 -0.002,-5.3e-4 2.1e-4,0.004 8.2e-4,0.009 0.001,0.0129 10e-4,0.007 0.004,0.0131 0.006,0.0202 -0.0132,0.0242 0.002,-0.009 0.0274,0.0563 0.0124,0.032 0.0207,0.0657 0.03,0.0987 0.003,0.005 0.006,0.0101 0.007,0.0155 3.2e-4,0.001 1.5e-4,0.002 5.2e-4,0.003 0.0172,0.0406 0.0336,0.0822 0.0548,0.12093 0.006,0.0107 0.0147,0.0192 0.0191,0.0305 0.002,0.004 -0.006,0.01 -0.003,0.0129 0.0159,0.0158 0.0365,0.0258 0.0548,0.0388 0.0545,0.0499 0.0989,0.0819 0.13539,0.14676 0.0251,0.0446 0.0453,0.0914 0.0641,0.13901 0.006,0.0149 0.006,0.0314 0.009,0.047 0.0157,0.0751 0.0134,0.0641 0.0305,0.12816 0.0153,0.01 0.0307,0.0193 0.045,0.0305 0.051,0.0401 0.1,0.0836 0.14986,0.12506 0.15825,0.12813 0.28816,0.30603 0.39946,0.47645 0.0226,0.0346 0.12742,0.20299 0.13849,0.26148 0.0173,0.0916 0.0158,0.18564 0.0238,0.27854 -0.021,0.0396 -0.0413,0.0796 -0.063,0.11886 0.001,0.003 0.002,0.006 0.003,0.009 0.0349,0.0243 0.0473,0.0298 0.0992,0.0594 0.0351,0.0281 0.0724,0.0538 0.10542,0.0842 0.0545,0.0502 0.13972,0.16338 0.17518,0.21498 0.0307,0.0447 0.0416,0.0832 0.0698,0.12816 0.006,0.01 0.0152,0.0184 0.0227,0.0274 0.0159,0.0197 0.0413,0.0501 0.0574,0.0718 0.0122,0.0165 0.0242,0.0334 0.0362,0.0501 -6.9e-4,0 -0.003,0.002 -0.002,0.002 0.004,0.006 0.009,0.009 0.0134,0.0145 0.0293,0.0308 0.0587,0.0632 0.0904,0.0915 0.0407,0.0363 0.0855,0.068 0.12247,0.10852 0.0806,0.0777 0.16128,0.15462 0.22893,0.24443 0.008,0.0106 0.0137,0.0223 0.0207,0.0336 0.0119,0.0311 0.0244,0.0619 0.0362,0.093 0.003,0.008 0.003,0.0173 0.005,0.0253 0.009,0.0401 0.019,0.0799 0.0315,0.11886 0.004,0.0132 0.007,0.0269 0.0119,0.0398 0.003,0.009 0.008,0.0163 0.0124,0.0243 0.0305,0.0567 0.0647,0.11214 0.10594,0.16174 0.0279,0.0346 0.0554,0.0728 0.0863,0.10491 0.0374,0.0389 0.0803,0.0722 0.11628,0.11265 0.0143,0.0176 0.0289,0.0349 0.0429,0.0527 0.005,0.007 0.002,0.0192 0.0145,0.0222 0.0461,0.0525 0.10147,0.10203 0.12299,0.17156 0.0512,0.0255 0.10268,0.0506 0.15399,0.076 0.12989,0.0979 0.0699,0.048 0.22428,0.19534 0.0111,0.0106 -0.021,-0.023 -0.0341,-0.031 -0.005,-0.003 -0.21048,-0.13113 -0.26148,-0.11163 -0.001,5.3e-4 -0.003,0.002 -0.004,0.002 0.0119,0.0124 0.024,0.0241 0.047,0.0465 0.0861,0.0839 0.059,0.0606 0.13591,0.11834 0.0203,0.0145 0.0396,0.0298 0.0605,0.0434 0.0363,0.0236 0.0772,0.0402 0.11059,0.0677 0.10815,0.0892 0.16381,0.16891 0.23978,0.28526 0.0298,0.0457 0.0341,0.0546 0.0537,0.0853 0.0236,0.0111 0.0649,0.036 0.0966,0.0579 -2.1e-4,-0.006 -3e-4,-0.012 -5.3e-4,-0.0181 -0.11013,-0.21374 -0.30208,-0.43428 -0.33693,-0.48576 -0.0126,-0.0186 0.0333,0.0301 0.0496,0.0455 0.0259,0.0244 0.0518,0.0482 0.077,0.0734 0.0204,0.0205 0.0401,0.0421 0.06,0.0631 0.0287,0.0349 0.0576,0.0695 0.0858,0.1049 7.7e-4,0.001 10e-4,0.002 0.002,0.003 0.0298,0.0188 0.0558,0.0392 0.0584,0.0713 0.003,0.0433 0.003,0.0826 0.004,0.12454 0.005,0.009 0.0111,0.0186 0.0155,0.0279 0.004,0.003 0.0106,0.007 0.0134,0.009 0.0263,0.0213 0.0506,0.0452 0.0755,0.0682 -0.006,-0.0215 -0.013,-0.0429 -0.0186,-0.0646 -0.003,-0.0102 0.009,0.0194 0.014,0.0284 0.006,0.0116 0.0178,0.0353 0.0294,0.0584 0.0342,0.0325 0.0671,0.0663 0.10026,0.0997 a 124.35413,125.29907 0 0 0 27.77041,-78.92493 124.35413,125.29907 0 0 0 -124.35417,-125.299327 z m 96.36983,204.025267 c -0.004,-0.003 -0.0102,-0.007 -0.015,-0.01 2.7e-4,0.008 3.2e-4,0.0159 5.3e-4,0.0238 0.009,0.005 0.0175,0.01 0.0264,0.015 -0.004,-0.01 -0.007,-0.0189 -0.0119,-0.0289 z m 0.0119,0.0289 c 0.0317,0.072 0.0504,0.14108 0.0476,0.20051 0.0155,0.0305 0.0215,0.0412 0.0455,0.0879 v -0.002 c 0.002,0.005 0.002,0.008 0.005,0.0129 a 124.35413,125.29907 0 0 0 0.0212,-0.0263 c 0.006,-0.0151 0.007,-0.0178 0.0129,-0.0336 -0.0149,-0.0518 -0.0294,-0.1038 -0.0444,-0.15555 -0.0125,-0.0192 -0.0266,-0.0372 -0.0398,-0.0558 -0.0152,-0.0101 -0.0315,-0.0188 -0.0475,-0.0279 z m -0.0263,-0.015 c -0.0302,-0.017 -0.0571,-0.0377 -0.0832,-0.0594 0.027,0.0425 0.0653,0.10082 0.0822,0.13074 -2.7e-4,-0.0251 0.002,-0.0455 0.001,-0.0713 z m -3.51038,-4.88085 c -6.6e-4,-0.002 -0.001,-0.003 -0.002,-0.005 -0.002,-0.004 -0.003,-0.007 -0.005,-0.0119 0.003,0.0106 0.006,0.0211 0.01,0.0315 0.002,0.005 -8e-4,-0.007 -0.003,-0.015 z m -10.73268,15.73289 c 0.0259,0.36368 0.0932,0.74458 0.19741,1.16065 0.0303,-0.25855 0.0787,-0.51722 0.1266,-0.77515 -0.12431,-0.15426 -0.23,-0.27926 -0.32401,-0.3855 z m 0.19741,1.16065 c -0.01,0.081 -0.0165,0.16195 -0.0212,0.24288 0.073,0.14939 0.1427,0.29692 0.216,0.44235 -0.0756,-0.2406 -0.14047,-0.46829 -0.19482,-0.68523 z m 9.39219,-17.8108 c 2.5e-4,7.9e-4 7.7e-4,0.002 10e-4,0.003 9.7e-4,0.002 0.003,0.005 0.004,0.007 0.003,0.005 0.013,0.0179 0.0103,0.0129 -0.004,-0.008 -0.0174,-0.0312 -0.015,-0.0222 z m 3.8933,6.94635 c 0.004,0.005 0.009,0.0109 0.0134,0.016 0.0198,0.016 0.0609,0.0415 0.0465,0.03 -0.0196,-0.0158 -0.0401,-0.0305 -0.0599,-0.046 z m -3.29541,2.78587 c 0.002,0.002 0.003,0.004 0.005,0.006 0.18273,0.0367 0.14582,0.0277 -0.005,-0.006 z m 0.21188,0.2341 c 0.0285,0.0308 0.0541,0.0574 0.0817,0.0868 -0.01,-0.0215 -0.0198,-0.0429 -0.0377,-0.0574 -0.0115,-0.009 -0.031,-0.02 -0.0439,-0.0294 z m 0.2837,0.29869 c 0.0239,0.0247 0.0518,0.0549 0.0749,0.0786 -0.005,-0.0135 -0.01,-0.0269 -0.015,-0.0403 -0.0201,-0.0125 -0.0401,-0.0252 -0.0599,-0.0382 z m -9.43405,2.67787 c 0.15653,1.46223 0.17086,2.09955 0.23513,2.44326 0.14464,0.16043 0.35522,0.36506 0.61495,0.61288 -0.41172,-1.01337 -0.70156,-1.97548 -0.32453,-1.42988 0.18014,0.26068 0.3143,0.4619 0.47387,0.69608 z m 0.99942,2.32234 0.64544,1.50068 c 0.14363,0.13963 0.26684,0.25718 0.43563,0.42478 0.0191,0.019 0.0433,0.04 0.0656,0.0605 -0.0548,-0.20203 -0.0514,-0.30667 0.0568,-0.17776 -0.31309,-0.48835 -0.72186,-1.10127 -1.20355,-1.80816 z m 1.20355,1.80816 c 0.083,0.1294 0.15913,0.24924 0.23151,0.36483 0.0231,0.007 0.0459,0.0103 0.0682,0.0109 -0.10003,-0.12527 -0.18448,-0.23585 -0.29507,-0.37104 -0.002,-0.002 -0.003,-0.003 -0.005,-0.005 z m 0.23151,0.36483 c -0.10104,-0.0296 -0.20314,-0.10875 -0.28836,-0.18707 0.016,0.059 0.0384,0.12769 0.0631,0.19947 0.0774,0.0872 0.16351,0.18843 0.24753,0.28681 a 124.35413,125.29907 0 0 0 0.10128,-0.0971 c -0.0424,-0.0691 -0.0765,-0.12693 -0.1235,-0.20206 z m -0.78962,-0.67231 c -0.31557,-0.30678 -0.58293,-0.56473 -0.79478,-0.76688 0.025,0.0615 0.0523,0.12138 0.078,0.18294 0.19474,0.15852 0.4501,0.3875 0.77618,0.72192 z m 12.97802,-3.03496 c 0.009,0.004 0.0183,0.008 0.0274,0.0119 0.009,0.004 -0.0246,-0.002 -0.0274,-0.0119 z m -12.96975,3.89899 c 0.12565,0.17114 0.28135,0.31434 0.45165,0.44442 a 124.35413,125.29907 0 0 0 0.0429,-0.0408 c -0.17629,-0.14099 -0.3439,-0.2769 -0.49454,-0.40359 z" />
    <g
       id="g110"
       transform="matrix(7.1278535,0,0,7.1115875,-40.535205,-309.53706)">
      <g
         id="g192"
         transform="matrix(0.08001535,0,0,0.08168859,48.103102,46.499325)">
        <ellipse
           style="fill:#00ffff;stroke-width:0.264583"
           id="path138"
           cx="-343.97589"
           cy="214.61742"
           rx="174.52701"
           ry="163.83621" />
        <g
           id="g167">
          <g
             id="g136"
             transform="translate(-53.988444,-51.31575)">
            <path
               id="path59"
               style="fill:#ffdd55;stroke-width:0.264583"
               d="m -294.32999,153.08043 a 105.07734,103.1875 0 0 0 -104.81272,103.1875 105.07734,103.1875 0 0 0 105.07731,103.18749 105.07734,103.1875 0 0 0 105.0773,-103.18749 105.07734,103.1875 0 0 0 -105.0773,-103.1875 105.07734,103.1875 0 0 0 -0.26459,0 z m -99.05493,193.07296 c 0.009,0.004 0.0183,0.008 0.0274,0.0119 0.009,0.004 -0.0246,-0.002 -0.0274,-0.0119 z" />
            <path
               id="path67"
               style="fill:#66ff00;stroke-width:0.264583"
               d="m -292.67892,291.75206 a 104.28114,83.154754 0 0 0 -97.37597,54.02048 c 0.006,0.0215 0.0156,0.0411 0.0212,0.063 0.16298,0.13283 0.23181,0.37098 0.35553,0.54726 0.0542,0.0772 0.0827,0.12706 0.11937,0.18552 0.16082,0.0987 0.33671,0.23096 0.52194,0.39842 0.16949,0.15323 0.3224,0.32387 0.48214,0.48731 0.0376,0.0234 0.0762,0.0454 0.11214,0.0713 0.0647,0.0467 0.11369,0.11147 0.16949,0.16847 0.0968,0.099 0.19032,0.20104 0.28526,0.30179 0.17883,0.0828 0.69137,0.46367 0.70021,0.47026 0.38119,0.26524 0.63563,0.66562 0.9524,0.99683 0.0232,0.005 0.0466,0.009 0.0698,0.0139 0.0532,0.0122 0.0994,0.0565 0.12816,0.10283 0.01,0.0155 -0.0293,0.0463 -0.0429,0.0341 -0.0537,-0.0479 -0.10516,-0.0987 -0.15503,-0.1509 -0.0954,-0.0203 -0.19214,-0.0341 -0.28835,-0.0501 0.20349,0.20394 0.40333,0.41126 0.58911,0.632 0.009,0.007 0.019,0.0138 0.0284,0.0207 0.0513,0.0377 0.10343,0.0745 0.15399,0.11317 0.0408,0.0311 0.0832,0.0606 0.12196,0.094 0.25615,0.033 0.52122,0.0729 0.80409,0.12868 0.21808,0.043 0.2064,0.39494 0.33434,0.57671 0.088,0.12498 0.19943,0.25033 0.31781,0.37 0.12739,0.0989 0.26085,0.22382 0.39429,0.35915 0.004,0.004 0.009,0.008 0.0129,0.0119 -0.004,-0.003 -0.002,-10e-4 -0.006,-0.004 0.0181,0.0184 0.0357,0.0381 0.0537,0.0568 0.16763,0.1435 0.32857,0.29415 0.47852,0.45579 0.1514,0.13776 0.30804,0.28367 0.46974,0.44183 0.003,0.003 0.019,0.0102 0.0202,0.0119 0.004,0.006 0.008,0.0129 0.0124,0.0191 0.17076,0.16811 0.33873,0.34313 0.49713,0.52038 0.0309,0.0164 0.061,0.0342 0.0915,0.0512 0.19144,0.10693 0.36695,0.20882 0.57154,0.29042 0.14277,0.15031 0.51501,0.45904 0.59635,0.7276 0.0179,0.0592 0.0272,0.1205 0.0382,0.18139 0.0981,0.18447 0.10268,0.23281 0.17311,0.40101 0.0137,0.0646 0.0273,0.10671 0.0403,0.13642 0.008,0.0105 0.0144,0.021 0.0222,0.0315 0.0628,0.0741 0.11121,-0.0806 0.13074,0.18758 0.0267,0.0423 0.0442,0.0736 0.0651,0.10956 0.17341,0.0785 0.38955,0.19179 0.42944,0.29197 0.0136,0.0341 0.0239,0.0693 0.0362,0.10387 0.19916,0.16478 0.11177,0.23659 0.24701,0.88212 -0.0842,-0.29347 -0.14544,-0.59458 -0.24701,-0.88212 -0.0473,-0.0391 -0.11947,-0.0892 -0.20722,-0.14831 0.0758,0.11376 0.10404,0.26121 0.16278,0.38705 -0.14559,-0.25438 -0.20149,-0.36601 -0.2372,-0.43356 -0.0137,-0.005 -0.0281,-0.007 -0.0413,-0.003 -0.0207,0.006 -0.0468,0.008 -0.0713,0.0124 0.0571,0.10012 0.1165,0.22736 0.17828,0.38292 0.008,0.004 0.0116,0.0119 0.01,0.0238 0.0733,0.18762 0.14893,0.40724 0.22893,0.6842 0.10098,0.0268 0.034,0.0492 0.3948,0.20619 3.5e-4,-0.001 6.9e-4,-0.003 10e-4,-0.004 -0.006,-0.002 -0.0159,-0.008 -0.0429,-0.0279 -4e-4,-2.6e-4 10e-4,1.4e-4 0.002,0 -0.0254,-0.0158 -0.0324,-0.0181 -0.11473,-0.0754 -0.0396,-0.0276 0.056,0.0323 0.12248,0.077 10e-4,2.7e-4 10e-4,9e-5 0.002,5.3e-4 0.0111,0.006 0.0225,0.0109 0.0336,0.0165 0.0274,-0.10994 0.054,-0.21409 0.078,-0.31884 v -5.3e-4 c 0.0122,-0.053 0.0246,-0.11005 0.0367,-0.15813 -0.0133,-0.0481 -0.0296,-0.0954 -0.0398,-0.14418 -0.0123,-0.0587 0.0403,0.11332 0.06,0.17002 0.0114,0.0328 0.0256,0.0644 0.0336,0.0982 0.0276,0.11712 0.0427,0.20475 0.0532,0.26717 0.0581,0.0946 0.11347,0.19084 0.15555,0.29404 0.001,0.003 0.001,0.004 0.003,0.007 0.0321,0.0261 0.0631,0.0537 0.0915,0.0842 0.0621,0.0517 0.12535,0.10841 0.077,0.0811 -0.0267,-0.0258 -0.0515,-0.0537 -0.077,-0.0811 -0.0443,-0.0369 -0.0941,-0.0773 -0.0744,-0.0568 0.10354,0.10734 0.22028,0.202 0.32142,0.31161 0.002,0.003 0.007,0.009 0.0103,0.0124 0.1862,0.17125 0.15291,0.13367 0.22737,0.26251 0.0184,0.014 0.0364,0.0284 0.0548,0.0424 -0.0216,-0.0281 -0.0304,-0.0395 -0.0574,-0.0641 -0.24178,-0.18292 0.0477,0.0345 0.24753,0.1943 0.14761,0.0526 0.16406,0.0545 0.39326,0.19947 0.0223,0.0429 0.0843,0.0443 0.11317,0.0806 0.0502,0.063 0.10273,0.12463 0.15399,0.18707 0.0779,0.0498 0.20643,0.13401 0.23772,0.18345 0.14072,0.22258 0.20522,0.32001 0.24236,0.40049 0.0162,0.0167 0.0328,0.033 0.0491,0.0496 0.0181,0.002 0.0246,0.005 0.0444,0.0336 0.002,-7.9e-4 0.003,-10e-4 0.006,-0.002 0.0339,0.0403 0.13979,0.15729 0.1018,0.12092 -0.0296,-0.0284 -0.0578,-0.0583 -0.0868,-0.0873 0.008,0.0118 0.0168,0.0261 0.0295,0.046 0.0122,0.009 0.0189,0.0264 0.0284,0.0393 1.2e-4,0.001 -1.1e-4,0.003 0,0.004 -0.0179,-0.0279 -0.0164,-0.0246 -0.0284,-0.0434 -0.002,-0.002 -0.003,-0.005 -0.005,-0.006 -0.0349,-0.0143 -0.0692,-0.0331 -0.10387,-0.0491 0.0132,0.0568 0.0237,0.1223 0.0398,0.23564 -0.0166,-0.0788 -0.036,-0.15532 -0.0594,-0.22892 -0.27824,0.10837 -0.50231,0.19114 -0.70538,0.2651 0.0205,0.0142 0.0405,0.0281 0.061,0.0424 0.1603,-0.0824 0.33319,-0.1666 0.41703,-0.1695 0.0416,-0.001 0.058,0.0181 0.0336,0.0708 -0.0339,0.0731 -0.066,0.13068 -0.0987,0.1943 0.16584,-0.0519 0.33251,-0.10076 0.50229,-0.13746 0.0637,-0.0137 0.12361,0.0422 0.18138,0.0724 0.19428,0.10134 0.38388,0.21181 0.57361,0.32143 0.13944,0.0806 0.2812,0.15788 0.41393,0.24908 0.51237,0.35196 0.70874,0.52294 1.156,0.88625 0.11269,0.11902 0.24737,0.22049 0.33797,0.35708 0.0178,0.0269 0.0496,0.0805 0.0858,0.1478 0.005,0.003 0.0104,0.006 0.0155,0.009 0.13161,0.0597 0.24724,0.15167 0.37879,0.21187 0.0592,0.0271 0.12175,0.0469 0.18293,0.0693 0.0496,0.0182 0.10336,0.0271 0.14987,0.0522 0.4492,0.24224 0.38246,0.21018 0.69866,0.49196 0.38242,0.3349 0.73768,0.64884 0.88367,1.16324 0.0223,0.0786 0.0281,0.1606 0.0305,0.24288 0.017,0.0106 0.0312,0.0239 0.0475,0.0351 0.004,0.002 0.008,0.005 0.0124,0.007 -9e-5,0.002 -5.3e-4,0 -5.3e-4,0.002 0.23302,0.16324 0.41033,0.38004 0.61392,0.58085 0.0321,0.0353 0.056,0.0656 0.0827,0.0977 0.0161,0.008 0.0327,0.0146 0.0486,0.0227 0.0629,0.032 0.12128,0.0715 0.18139,0.10852 0.35839,0.22039 0.71646,0.44787 1.04696,0.70849 0.25678,0.20412 0.56528,0.36884 0.75861,0.64027 0.0585,0.0864 0.14076,0.15123 0.2186,0.22065 0.0641,0.0248 0.12824,0.0492 0.19172,0.0755 0.005,0.002 0.006,0.009 0.0103,0.0119 0.0333,0.0195 0.0662,0.0395 0.1018,0.0543 0.28348,0.11803 0.59056,0.19341 0.83303,0.39326 0.10253,0.10612 0.20546,0.21221 0.30799,0.31833 0.0251,0.008 0.0496,0.0183 0.0744,0.0274 0.18834,0.17997 0.18046,0.17665 0.27182,0.26716 0.10321,0.0369 0.20879,0.0706 0.25838,0.16072 0.001,0.002 0.003,0.01 0.005,0.0124 0.19438,0.0659 0.38856,0.13229 0.57826,0.21084 0.0334,0.0216 0.28193,0.16308 0.35657,0.24908 0.0298,0.0344 -0.19567,-0.056 -0.11679,-0.0233 0.089,0.037 0.18043,0.0676 0.27078,0.10129 0.0935,0.0598 0.18899,0.11661 0.2806,0.17931 0.0225,0.0155 0.0411,0.0366 0.0615,0.0548 -10e-4,0.004 -0.007,0.009 -0.004,0.0124 0.07,0.0633 0.26518,0.11148 0.3142,0.17518 0.11085,0.0878 0.22257,0.17384 0.33228,0.26304 0.007,0.005 0.0104,0.0141 0.016,0.0202 0.0147,0.017 0.0671,0.0461 0.045,0.0501 -0.0288,0.005 -0.0473,-0.037 -0.0755,-0.045 -0.007,-0.002 -0.007,0.0127 -0.01,0.0196 0.11276,0.0454 0.22573,0.091 0.33848,0.13642 0.16398,0.0956 0.33422,0.18123 0.49196,0.28681 0.13435,0.0899 0.25802,0.19481 0.38189,0.29869 0.18899,0.15848 0.37679,0.31893 0.55604,0.48834 0.0906,0.0856 0.16779,0.18455 0.2527,0.27595 0.51393,0.55295 0.5097,0.54435 1.03198,1.09037 0.20751,0.21694 0.34664,0.43173 0.43305,0.63614 0.0525,0.003 0.10512,0.006 0.15761,0.009 0.24802,0.0273 0.49089,0.0643 0.72657,0.14986 0.0783,0.0285 0.15648,0.058 0.2341,0.0884 0.0183,0.007 0.0374,0.0132 0.0537,0.0243 0.003,0.002 -0.007,0.003 -0.0103,0.005 0.40043,0.13401 0.0738,0.003 0.59221,0.32659 0.0302,0.0189 -0.0438,-0.0409 -0.0816,-0.0687 -10e-4,-2.6e-4 -10e-4,-7.9e-4 -0.003,-0.001 -0.0229,-0.0111 -0.0458,-0.0225 -0.0687,-0.0336 -0.003,-0.003 -0.0146,-0.0111 -0.0104,-0.009 0.0251,0.011 0.0508,0.0212 0.0734,0.0367 0.003,0.002 0.004,0.004 0.008,0.007 0.15261,0.047 0.21621,0.0672 0.35863,0.11627 0.28381,0.0294 0.14535,-5.3e-4 0.55139,0.51573 0.0533,0.006 0.10482,0.011 0.15865,0.0181 -0.0427,-0.0857 -0.0867,-0.17094 -0.13384,-0.25425 -0.01,-0.004 -0.008,-0.003 -0.0186,-0.007 -0.006,-0.003 0.009,-0.0131 0.006,-0.0176 0.005,0.008 0.008,0.0167 0.0129,0.0248 0.45113,0.19425 0.20145,0.0219 0.555,0.3204 0.0945,0.0291 0.16356,0.12202 0.24391,0.18345 0.0105,0.008 0.0739,0.074 0.0946,0.0956 0.2246,0.0822 0.44082,0.19132 0.67386,0.24495 0.0979,0.0225 -0.16852,-0.1105 -0.26045,-0.1509 -0.0107,-0.005 -0.0328,-0.008 -0.0512,-0.0119 0.0596,0.01 0.11948,0.0204 0.17725,0.0377 0.28283,0.0849 0.31235,0.11156 0.52814,0.22944 0.0122,0.007 0.0243,0.0137 0.0367,0.0202 0.0429,0.0141 0.0818,0.0329 0.10955,0.0563 0.003,0.002 0.005,0.005 0.008,0.008 0.0172,0.01 0.0355,0.0178 0.0522,0.0284 0.01,0.006 -0.0169,-0.004 -0.0336,-0.0114 0.0638,0.056 0.12375,0.11627 0.18035,0.17932 0.0571,0.005 0.12889,0.007 0.17519,0.0134 0.10066,0.014 0.16592,0.0854 0.2191,0.17777 l 131.38475,-0.12506 c 0.1267,-0.0985 0.26803,-0.18205 0.41134,-0.25166 0.005,-0.003 -0.0329,0.0216 -0.004,0.0176 0.0533,-0.0448 0.10268,-0.0944 0.15968,-0.13436 0.33393,-0.23461 0.24342,-0.15539 0.47181,-0.2713 0.36247,-0.18402 -0.0594,0.008 0.46043,-0.21705 0.005,-2.6e-4 0.009,-9e-5 0.0139,-5.2e-4 0.0852,-0.0634 0.17213,-0.11543 0.26148,-0.16072 0.0392,-0.0394 0.0795,-0.0754 0.11731,-0.10387 0.007,-0.005 0.0149,-0.0105 0.0222,-0.016 0.12521,-0.11672 0.26903,-0.2118 0.37982,-0.27802 0.0564,-0.0638 0.14933,-0.13494 0.21136,-0.18345 0.0482,-0.0365 0.37142,-0.28246 0.39222,-0.29146 0.0552,-0.0229 0.11257,-0.0404 0.17002,-0.0579 0.0141,-0.0532 0.0892,-0.0818 0.13022,-0.12403 0.0759,-0.0716 0.1503,-0.14517 0.2279,-0.21497 0.12059,-0.10845 0.29981,-0.23918 0.42013,-0.32918 0.002,-0.002 0.01,-0.006 0.008,-0.004 -0.0151,0.0139 -0.0644,0.0508 -0.047,0.0398 0.0603,-0.0381 0.11855,-0.0793 0.17725,-0.11989 0.004,-0.006 0.007,-0.0122 0.0114,-0.0181 0.0369,-0.0533 0.111,-0.068 0.1664,-0.10181 0.0908,-0.0402 0.15746,-0.0902 0.24546,-0.14314 0.31929,-0.19187 0.65282,-0.35782 0.99942,-0.49506 h 5.3e-4 c 0.05,-0.0314 0.0942,-0.0739 0.14986,-0.0935 0.0169,-0.006 0.0289,0.0395 0.0445,0.0305 7.9e-4,-5.2e-4 0.1184,-0.1768 0.1204,-0.1788 0.0561,-0.0836 0.0987,-0.17813 0.16847,-0.25062 0.65953,-0.68493 0.19766,-0.17825 0.46405,-0.35709 0.0298,-0.02 0.0574,-0.0431 0.0858,-0.0651 0.0497,-0.18723 0.57228,-0.37528 0.72554,-0.4439 0.0564,-0.0212 0.10948,-0.0546 0.16898,-0.0636 0.0137,-0.002 -0.0268,0.0443 -0.0139,0.0393 0.0509,-0.0212 0.0906,-0.0627 0.13798,-0.091 0.0918,-0.0548 0.16738,-0.0967 0.22944,-0.12609 0.0956,-0.0836 0.22634,-0.17119 0.29249,-0.21291 5.3e-4,-5.3e-4 0.0576,-0.0482 0.0636,-0.0486 0.007,-2.7e-4 -0.005,0.0126 -0.008,0.0196 -0.009,0.0629 -0.0172,0.12575 -0.0258,0.18862 0.0932,-0.15056 0.20322,-0.32844 0.18138,-0.21911 -0.0227,0.11394 -0.0454,0.21232 -0.0677,0.30696 0.009,-0.008 0.0165,-0.0156 0.0248,-0.0238 0.01,-0.0204 0.0278,-0.0515 0.0367,-0.0703 0.004,-0.0236 0.0116,-0.0424 0.0295,-0.0589 0.36528,-0.8089 -0.46923,0.052 0.23099,-0.61081 0.051,-0.0326 0.10156,-0.0661 0.15296,-0.0982 0.0774,-0.0484 0.15518,-0.0963 0.23358,-0.14314 0.008,-0.005 0.0208,-0.0136 0.0325,-0.0217 0.01,-0.0113 0.0164,-0.0252 0.0274,-0.0356 0.001,-8e-4 0.003,-0.003 0.004,-0.004 0.002,-0.006 0.002,-0.0118 0.004,-0.0176 0.0314,-0.10297 0.14289,-0.14699 0.25114,-0.19327 0.0512,-0.0386 0.10124,-0.0764 0.14986,-0.1049 0.0395,-0.13358 0.26306,-0.35309 0.90538,-0.32815 0.31812,0.003 0.63637,-0.003 0.95446,-0.006 0.23164,5.3e-4 0.35587,0.003 0.55707,0.009 0.12742,-0.22693 0.25371,-0.46205 0.43202,-0.65009 0.003,0.0161 0.002,0.0621 0.0119,0.0486 0.0261,-0.0371 0.0291,-0.0863 0.045,-0.12867 0.0278,-0.0743 0.0496,-0.15109 0.0858,-0.22169 0.0667,-0.12979 0.10568,-0.19138 0.13953,-0.22635 0.0346,-0.0423 0.0865,-0.0903 0.11162,-0.1235 0.15687,-0.20677 0.23112,-0.30401 0.26148,-0.33693 -0.007,-0.0199 -0.0158,-0.0392 -0.0207,-0.0594 -0.0199,-0.0823 0.12092,-0.27147 0.19534,-0.37466 0.0235,-0.0559 0.0558,-0.122 0.10594,-0.21962 0.0518,-0.0824 0.0964,-0.16993 0.15503,-0.24753 0.21132,-0.27967 0.24859,-0.29664 0.47645,-0.50385 0.25122,-0.22845 0.48215,-0.45964 0.7798,-0.632 0.0319,-0.0136 0.0621,-0.0325 0.0951,-0.0434 0.004,-0.001 -0.004,0.008 -0.006,0.0119 0.0172,-0.006 0.0345,-0.0126 0.0517,-0.0186 0.0359,-0.025 0.0608,-0.0646 0.0987,-0.0863 0.008,-0.005 0.0152,0.0111 0.0222,0.0171 0.17657,-0.25871 0.18095,-0.29887 0.47335,-0.524 0.0753,-0.0579 0.163,-0.0983 0.2496,-0.13746 0.39,-0.17647 0.80593,-0.28065 1.2144,-0.40308 0.37694,-0.16114 0.25555,-0.13537 0.74672,-0.19637 0.0352,-0.004 0.0705,0.004 0.10594,0.006 0.041,0.002 0.082,0.003 0.12299,0.005 0.0624,-0.0318 0.12308,-0.0534 0.185,-0.0672 0.009,-0.0199 0.0203,-0.0389 0.0279,-0.0594 0.0239,-0.0648 0.034,-0.13424 0.0496,-0.20154 0.0776,-0.33506 0.061,-0.26751 0.11731,-0.60823 0.0469,-0.17352 0.0839,-0.34982 0.14056,-0.52038 0.038,-0.11435 0.26969,-0.49172 0.29869,-0.53692 0.29413,-0.4572 0.62724,-0.92017 1.10329,-1.20199 0.16479,-0.0973 0.32598,-0.20137 0.49454,-0.29197 0.0794,-0.0427 0.16545,-0.0712 0.24805,-0.10749 0.14218,-0.0625 0.28475,-0.12482 0.42633,-0.18862 0.37645,-0.16973 0.51243,-0.24458 0.92294,-0.39842 0.0205,-0.0482 0.0409,-0.0965 0.0615,-0.1447 0.17728,-0.4745 0.55157,-0.81516 0.91829,-1.1436 0.0608,-0.0518 0.11882,-0.10724 0.18241,-0.15554 0.28368,-0.21546 0.58025,-0.41136 0.87075,-0.6165 0.004,-0.0324 0.008,-0.0651 0.0114,-0.0972 0.009,-0.10028 0.0416,-0.19753 0.0703,-0.29404 0.0206,-0.0693 0.16483,-0.49714 0.22272,-0.60978 0.062,-0.12054 0.13749,-0.23351 0.20619,-0.35036 0.0587,-0.0715 0.11172,-0.14806 0.17622,-0.21446 0.15228,-0.15676 0.25787,-0.23116 0.41806,-0.35708 0.24532,-0.19285 0.48966,-0.3869 0.73329,-0.58188 0.3183,-0.27807 0.67277,-0.51812 0.96635,-0.82321 0.19792,-0.21022 0.38706,-0.45093 0.65061,-0.58394 0.0991,-0.05 0.20351,-0.0882 0.3054,-0.13229 0.0556,-0.0172 0.11262,-0.0303 0.16692,-0.0512 0.76259,-0.29369 -0.45337,0.14459 0.41445,-0.18604 0.0165,-0.006 0.0336,-0.0109 0.0501,-0.0171 0.0194,-0.0585 0.0604,-0.15816 0.076,-0.20774 0.0503,-0.15965 0.0942,-0.31856 0.13487,-0.48111 0.0412,-0.25099 0.0696,-0.50403 0.10749,-0.75551 0.005,-0.0315 0.0149,-0.12585 0.0155,-0.0941 0.009,0.46561 -0.14995,0.11538 0.15193,0.49144 0.0208,-0.18732 0.0763,-0.49356 0.10077,-1.08572 5.3e-4,-0.0105 0.16829,-0.1522 0.20619,-0.1912 -0.005,0.005 -0.0189,0.018 -0.0139,0.0139 0.76412,-0.6148 -0.018,-0.002 0.33641,-0.25373 0.0206,-0.0147 -0.085,0.0545 -0.0656,0.0382 0.0572,-0.0479 0.1151,-0.0951 0.1726,-0.14263 0.0339,-0.0238 0.0742,-0.04 0.1018,-0.0708 0.01,-0.0111 -0.0479,0.0181 -0.0429,0.005 0.0143,-0.0382 0.0502,-0.0639 0.0765,-0.0951 0.0671,-0.0796 0.12912,-0.16519 0.20722,-0.23409 0.0554,-0.0488 0.11381,-0.0941 0.17157,-0.14005 -0.0278,0.0104 0.042,-0.0708 0.0971,-0.15141 0.0269,-0.0392 0.0538,-0.0791 0.0858,-0.1142 0.0412,-0.0451 0.0861,-0.0865 0.13022,-0.12868 0.0398,-0.0678 0.0782,-0.12882 0.0713,-0.10387 -0.005,0.0172 -0.0123,0.0336 -0.0176,0.0506 l 0.001,-10e-4 c 0.19919,-0.16256 0.0643,-0.0525 -0.007,0.0181 -0.0518,0.16285 -0.12086,0.32022 -0.18035,0.4806 0.0835,0.73827 -0.0228,0.17985 0.47904,-0.80977 -0.0231,0.0139 -0.12738,0.0835 -0.11989,0.0785 0.0299,-0.0451 0.0693,-0.0928 0.12919,-0.15451 -0.004,0.003 -0.008,0.007 -0.0119,0.0104 -0.01,0.008 0.0127,-0.022 0.0207,-0.032 0.0658,-0.0805 0.1335,-0.15915 0.2005,-0.23875 0.013,-0.0138 0.0276,-0.0261 0.0408,-0.0398 a 104.28114,83.154754 0 0 0 -98.50513,-55.57746 104.28114,83.154754 0 0 0 -0.17001,0 z m 73.3149,78.77504 c -0.0348,0.0153 -0.0721,0.0263 -0.10387,0.047 -0.027,0.0176 0.0612,-0.0211 0.0894,-0.0367 0.005,-0.003 0.009,-0.007 0.0145,-0.0104 z m -152.64753,-6.94686 c -0.004,-0.003 -0.008,-0.006 -0.0119,-0.009 -0.0159,-0.009 -0.0317,-0.019 -0.0475,-0.0284 0.002,0.0656 0.002,0.13149 0.007,0.19637 0.006,-0.0334 0.0118,-0.0668 0.0176,-0.10025 0.006,0.014 0.0171,0.0571 0.0181,0.0419 0.002,-0.0367 -0.0205,-0.0734 -0.0139,-0.10956 0.0309,0.0171 0.0297,0.0248 0.0305,0.009 z m -5.6503,-4.18114 c -0.0514,0.0161 -0.1027,0.0329 -0.15399,0.0496 0.0301,0.022 0.0597,0.0442 0.0894,0.0667 0.0217,-0.0394 0.0422,-0.0727 0.0646,-0.11627 z m 0.39171,-0.40101 c -0.005,-0.008 -0.0171,-0.0264 -0.0207,-0.0315 -0.003,10e-4 -0.005,0.002 -0.008,0.003 0.009,0.01 0.019,0.019 0.0284,0.0284 z m -2.49132,-2.18385 c -0.004,-10e-4 -0.008,-0.002 -0.008,-0.002 0.009,0.006 0.0358,0.0246 0.0413,0.0279 8e-5,-2.6e-4 -8e-5,-7.9e-4 0,-0.001 -0.004,-0.005 -0.0143,-0.0123 -0.0336,-0.0253 z m -13.62346,-10.66085 c 0.009,0.004 0.0183,0.008 0.0274,0.0119 0.009,0.004 -0.0246,-0.002 -0.0274,-0.0119 z m 199.01679,1.62885 c 0.0131,2.5e-4 0.004,0.024 -0.0915,0.12092 -0.0195,0.0199 0.029,-0.0474 0.0434,-0.0713 0.0139,-0.0214 0.0202,-0.0292 0.03,-0.0439 0.007,-0.003 0.0137,-0.006 0.0181,-0.006 z m -0.56741,1.57148 c 0.0577,0.0824 0.12033,0.16178 0.1819,0.24184 0.011,-0.0102 0.022,-0.0203 0.0331,-0.0305 0.0122,-0.0145 0.0245,-0.0289 0.0367,-0.0434 -0.0547,-0.0429 -0.12923,-0.09 -0.25167,-0.16794 z m -0.54053,0.76842 c -0.0107,0.003 -0.0215,0.005 -0.032,0.008 -0.008,0.002 -0.0256,0.0185 -0.0186,0.0155 0.0228,-0.008 0.0326,-0.0157 0.0506,-0.0233 z m 0.15555,0.0724 c -0.0954,0.0138 -0.18035,0.0237 -0.2496,0.0284 0.0209,0.0697 0.038,0.14037 0.0501,0.21188 0.0442,-0.01 0.0865,-0.0234 0.12919,-0.0362 0.0233,-0.0354 0.0461,-0.0711 0.0703,-0.10593 0.001,-0.0258 0.002,-0.0517 0.004,-0.0775 -0.001,-0.007 -0.003,-0.0138 -0.004,-0.0207 z m -1.094,0.97359 c -0.009,0.002 -0.008,0.01 -0.005,0.0264 0.003,-0.009 0.005,-0.0178 0.008,-0.0264 -1.9e-4,3e-5 -0.002,-5e-5 -0.003,0 z m 0.0584,0.005 c -0.0129,0.0124 -0.0275,0.0304 -0.0326,0.0465 -0.0384,0.11922 -0.0689,0.24107 -0.11214,0.35864 -0.0101,0.0276 0.008,-0.0582 0.0124,-0.0873 0.003,-0.0183 0.007,-0.0309 0.01,-0.0481 -0.0299,0.0575 -0.0779,0.12965 -0.14108,0.21187 0.0954,-0.0345 0.19092,-0.0687 0.28784,-0.0987 0.0422,-0.0131 0.0844,-0.0262 0.12713,-0.0377 0.008,-0.10997 0.0115,-0.22003 0.0134,-0.33022 -0.0873,-0.008 -0.13998,-0.0127 -0.16485,-0.015 z m -184.66263,3.41633 c 0.013,0.0802 0.0254,0.16083 0.046,0.23926 0.0158,0.0602 -0.0111,-0.12403 -0.0165,-0.18603 -0.009,-0.018 -0.0196,-0.0355 -0.0295,-0.0532 z m 0.53899,0.86558 c -5.3e-4,0 -10e-4,0.002 -0.002,0.003 0.003,0.002 0.005,0.004 0.008,0.006 -10e-4,-0.001 -0.005,-0.009 -0.006,-0.009 z m 0.75602,1.387 c -5.3e-4,1.2e-4 5.3e-4,10e-4 -5.3e-4,10e-4 0.002,7.9e-4 0.0106,0.007 0.0119,0.008 0.002,5.3e-4 -0.0107,-0.008 -0.0114,-0.009 z m -0.33589,0.0362 c 0.007,0.0265 0.0145,0.0539 0.0217,0.0811 0.0848,0.0274 0.1727,0.0496 0.26148,0.0693 0.004,-0.0132 0.007,-0.0274 0.0109,-0.0408 -0.11078,-0.0427 -0.19656,-0.0733 -0.29404,-0.10956 z m 1.0666,0.62374 c 0.002,10e-4 0.003,0.002 0.005,0.004 -4e-5,-7.9e-4 -4.7e-4,-0.002 -5.2e-4,-0.003 -0.002,-1.1e-4 -0.003,-5.3e-4 -0.005,-5.3e-4 z m 186.21447,0.12609 c 1.9e-4,7.9e-4 1.4e-4,0.002 5.3e-4,0.003 0.002,0.007 0.0114,0.008 0.0227,0.009 -0.003,-0.004 -0.005,-0.007 -0.008,-0.0104 -0.005,-2.6e-4 -0.0104,-7.9e-4 -0.0155,-10e-4 z m -185.92095,0.13797 c 2.9e-4,5.3e-4 7.4e-4,5.3e-4 10e-4,0.001 0.0106,0.004 0.006,0.002 0.016,0.006 -8.5e-4,-0.002 -6.6e-4,-0.002 -0.002,-0.003 -0.008,-0.002 -0.0187,-0.006 -0.0155,-0.004 z m 1.0697,0.87023 c 0.0597,0.0585 0.11852,0.11783 0.17673,0.17777 -0.0389,-0.0612 -0.0851,-0.1179 -0.15296,-0.16278 -0.005,-0.003 -0.0169,-0.0106 -0.0238,-0.015 z m 0.88729,1.65365 c -0.003,5.3e-4 -0.006,7.9e-4 -0.009,0.002 -0.0149,0.0114 -0.03,0.0249 -0.045,0.0367 0.006,5.3e-4 0.0127,10e-4 0.0191,0.002 0.0114,-0.0134 0.0246,-0.0258 0.0351,-0.0398 z m -17.32918,3.8995 c 0.13246,0.24363 0.257,0.48388 0.37,0.71779 0.003,-0.0956 0.003,-0.12407 0.006,-0.2279 -0.10595,-0.14961 -0.22782,-0.30961 -0.37621,-0.48989 z m 183.03379,0.33383 c -0.0156,0.003 -0.028,0.0106 -0.0222,0.0196 0.0753,0.11613 0.15479,0.22959 0.23565,0.34209 0.0135,-0.0146 0.0362,-0.0389 0.0491,-0.0527 -0.066,-0.0955 -0.13862,-0.19499 -0.22169,-0.30179 -0.007,-0.008 -0.0253,-0.0103 -0.0408,-0.007 z m -181.86435,0.96739 c -0.003,0.18885 -0.007,0.3777 -0.007,0.56637 0.0723,0.0104 0.13599,0.0212 0.20464,0.032 -0.0617,-0.20111 -0.12469,-0.40154 -0.1974,-0.59841 z m 180.94347,0.14314 c -0.006,0.0137 -0.0114,0.0258 -0.0217,0.047 -0.008,0.0171 -0.0166,0.034 -0.0248,0.0512 0.0116,0.0219 0.024,0.0495 0.0362,0.076 0.0244,-0.0154 0.0441,-0.0273 0.0667,-0.0413 -0.0225,-0.0435 -0.0404,-0.088 -0.0563,-0.13281 z m 0.0563,0.13281 c 0.006,0.0114 0.0123,0.0227 0.0186,0.0341 0.0344,-0.0287 0.0648,-0.0523 0.10594,-0.0899 0.0629,-0.0574 -0.0147,-0.0126 -0.12454,0.0558 z m 0.0186,0.0341 c -0.0205,0.017 -0.0448,0.0389 -0.063,0.0532 0.0688,0.15966 0.14291,0.36819 0.2129,0.55397 0.002,-0.0955 0.0138,-0.1949 0.0429,-0.29972 -0.0664,-0.10144 -0.13519,-0.20297 -0.19276,-0.30748 z m -0.063,0.0532 c -0.008,-0.0175 -0.0149,-0.0299 -0.0222,-0.046 -0.038,0.024 -0.0673,0.0417 -0.10387,0.0646 -0.005,0.0106 -0.0101,0.0215 -0.0155,0.032 -0.005,0.009 0.005,-0.0142 0.0114,-0.0294 -0.0465,0.0291 -0.1025,0.0654 -0.13281,0.0827 -0.0108,0.0158 -0.0183,0.0409 -0.0269,0.063 0.0554,-0.0174 0.13637,-0.0471 0.28991,-0.16692 z m -155.84992,0.89297 c 0.0529,0.0238 0.1083,0.0409 0.1633,0.0594 -0.029,-0.0196 -0.0582,-0.0391 -0.0884,-0.0568 -0.009,-0.005 0.0348,0.0206 0.0243,0.0202 -0.034,-10e-4 -0.13025,-0.0368 -0.0992,-0.0227 z m -25.10183,0.12351 c 7e-5,0.002 -6e-5,0.004 0,0.006 0.0282,0.0833 0.0525,0.15939 0.078,0.23875 0.12311,-0.0388 0.24666,-0.0761 0.37207,-0.1018 -0.15134,-0.0448 -0.30123,-0.0926 -0.4501,-0.14263 z m 25.49044,0.17621 c 0.0361,0.0215 0.0774,0.0379 0.11937,0.0532 -0.005,-0.004 -0.0107,-0.008 -0.016,-0.0119 -0.0305,-0.021 -0.13509,-0.0602 -0.10335,-0.0413 z m 0.16743,0.0884 c 0.0308,0.0307 0.081,0.0793 0.10129,0.0997 0.0158,0.005 0.0317,0.0107 0.0475,0.016 -0.005,-0.006 -0.01,-0.0113 -0.0145,-0.017 -0.0449,-0.0329 -0.0895,-0.0658 -0.13436,-0.0987 z m -25.55451,0.0594 c 0.56225,1.77276 0.48159,2.46978 0.60668,0.65887 -0.0581,-0.18138 -0.11035,-0.36524 -0.16278,-0.5488 -0.1479,-0.0368 -0.29546,-0.0755 -0.4439,-0.11007 z m 25.75708,0.13901 c 0.0443,0.0455 0.0766,0.0748 0.0274,0.0155 -0.009,-0.005 -0.0182,-0.0105 -0.0274,-0.0155 z m 0.0651,0.0367 c 0.16212,0.45446 0.55905,2.14503 0.046,0.0253 -0.015,-0.009 -0.0307,-0.0168 -0.046,-0.0253 z m 150.9572,0.74155 c -0.0133,0.0156 -0.0276,0.0306 -0.0398,0.047 -0.0493,0.0667 -0.0797,0.20466 -0.0971,0.27544 0.003,-0.003 0.006,-0.005 0.009,-0.007 0.0461,-0.10249 0.0818,-0.21243 0.12764,-0.31522 z m -1.17306,1.07487 c -0.0329,-0.005 -0.065,0.0213 -0.0956,0.0977 -0.0423,0.10563 -0.0715,0.19336 -0.10542,0.28732 0.0672,-0.0328 0.13334,-0.0678 0.1943,-0.11213 0.008,-0.009 0.0136,-0.0127 0.0207,-0.0202 -0.007,-0.0842 -0.0126,-0.16835 -0.0139,-0.25269 z m -0.93948,0.27544 c -0.0679,0.0326 -0.13615,0.0649 -0.15709,0.11575 0.051,-0.0404 0.10309,-0.0796 0.15709,-0.11575 z m -2.08101,1.65364 c -0.0811,-7.9e-4 -0.18507,0.0103 -0.22737,0.0419 -0.0276,0.0206 -0.0521,0.0448 -0.0786,0.0667 0.1337,-0.0178 0.26695,-0.0373 0.3948,-0.0786 0.0502,-0.0162 -0.008,-0.0292 -0.0889,-0.03 z m -0.77773,0.65836 c -0.0136,10e-4 -0.0474,0.01 -0.0703,0.014 -0.0144,0.0169 -0.0294,0.0333 -0.0439,0.0501 -0.003,0.005 -0.006,0.0104 -0.008,0.0155 0.0381,-0.0162 0.0773,-0.0294 0.11369,-0.0496 0.043,-0.0239 0.0403,-0.0322 0.009,-0.03 z m -0.12247,0.0796 c -0.003,0.001 -0.006,0.002 -0.008,0.004 -0.0245,0.0285 -0.0491,0.0572 -0.0739,0.0853 -0.018,0.0199 -0.0237,0.10167 -0.01,0.0791 0.0335,-0.0543 0.0615,-0.1118 0.092,-0.16795 z m -0.008,0.004 c 0.006,-0.006 0.0111,-0.0127 0.0165,-0.0191 0.008,-0.0156 0.0175,-0.0308 0.0258,-0.0465 -0.14104,0.0291 -0.38306,0.0975 -0.49713,0.13746 -0.0299,0.0104 -0.0644,0.0589 -0.0915,0.0956 0.18366,-0.0529 0.37161,-0.0948 0.54622,-0.16743 z m -138.45046,0.53847 c 0.0664,0.01 0.0789,0.01 0.12144,0.0145 -0.005,-0.001 -0.007,-0.002 -0.0104,-0.003 -0.0367,-0.007 -0.14791,-0.0163 -0.1111,-0.0114 z m 0.61908,0.21652 c 0.0149,0.003 0.0593,0.0309 0.0698,0.0491 7.9e-4,0.001 0.001,0.002 0.002,0.004 -0.0216,-0.0195 -0.0582,-0.0218 -0.0744,-0.046 -0.004,-0.006 -0.002,-0.008 0.003,-0.007 z m 136.4139,0.0568 c -0.008,0.009 -0.014,0.019 -0.0217,0.0284 0.004,-0.003 0.0106,-0.007 0.0145,-0.009 0.003,-0.006 0.004,-0.0129 0.007,-0.0191 z m -135.47752,0.6103 c -0.0238,0.003 -0.0581,0.003 -0.092,0.002 7.9e-4,0.005 0.002,0.009 0.003,0.014 0.0347,-10e-4 0.0696,-0.004 0.10439,-0.006 -0.005,-0.003 -0.009,-0.006 -0.015,-0.01 z m -1.45262,1.31878 c 0.031,0.0198 0.0556,0.0521 0.0816,0.0806 -0.0619,-0.0545 -0.11328,-0.10076 -0.0816,-0.0806 z" />
            <path
               id="rect74"
               style="fill:#f4eed7;stroke-width:0.264583"
               d="m -344.33623,244.92857 v 93.36019 h 98.27358 v -93.36019 z" />
            <rect
               style="fill:#f4eed7;stroke-width:0.150999"
               id="rect128-0"
               width="26.492186"
               height="24.565472"
               x="-331.31073"
               y="270.629"
               rx="0"
               ry="0" />
            <path
               style="fill:#00ffff;stroke:#000000;stroke-width:0.150999px;stroke-linecap:butt;stroke-linejoin:miter;stroke-opacity:1"
               d="m -317.9346,270.71041 v 24.49071 l -0.0372,-11.65852 -13.34341,0.0391 26.35231,-0.0782"
               id="path132-2" />
            <path
               style="fill:#00ffff;stroke-width:0.0539281"
               d="m -331.28267,289.44547 v -5.71889 l 0.24387,-0.0352 c 0.13414,-0.0194 3.09885,-0.0352 6.58827,-0.0352 h 6.34437 l 0.0347,1.8673 c 0.0191,1.02702 0.0347,3.61635 0.0348,5.75408 l 9e-5,3.88676 h -6.62305 -6.62304 z"
               id="path134-7" />
            <path
               style="fill:#00ffff;stroke-width:0.0539281"
               d="m -317.82632,289.41939 v -5.74497 l 4.13941,-0.0367 c 2.27667,-0.0202 5.17426,-0.0368 6.43908,-0.0368 2.15981,-3e-5 2.29966,-0.006 2.29966,-0.0974 0,-0.0535 -0.0471,-0.12827 -0.10454,-0.16607 -0.12502,-0.0822 -12.73959,-12.51622 -12.76485,-12.58217 -0.01,-0.0251 -0.0629,-0.0458 -0.11827,-0.0458 -0.0987,0 -0.10074,0.1291 -0.10074,6.36268 v 6.36268 l -2.64134,4e-5 c -1.45273,2e-5 -4.43311,0.0165 -6.62305,0.0368 l -3.98171,0.0367 v -6.42711 -6.4271 h 13.21981 13.21982 v 12.25507 12.25507 h -6.49164 -6.49164 z"
               id="path136-2" />
            <rect
               style="fill:#f4eed7;stroke-width:0.150999"
               id="rect128-0-8"
               width="26.492186"
               height="24.565472"
               x="-287.65448"
               y="269.87305"
               rx="0"
               ry="0" />
            <path
               style="fill:#00ffff;stroke:#000000;stroke-width:0.150999px;stroke-linecap:butt;stroke-linejoin:miter;stroke-opacity:1"
               d="m -274.27835,269.95446 v 24.49071 l -0.0372,-11.65852 -13.34341,0.0391 26.3523,-0.0782"
               id="path132-2-1" />
            <path
               style="fill:#00ffff;stroke-width:0.0539281"
               d="m -287.62642,288.68952 v -5.71889 l 0.24387,-0.0352 c 0.13413,-0.0194 3.09885,-0.0352 6.58826,-0.0352 h 6.34438 l 0.0347,1.8673 c 0.0191,1.02702 0.0348,3.61635 0.0348,5.75408 l 9e-5,3.88676 h -6.62305 -6.62305 z"
               id="path134-7-7" />
            <path
               style="fill:#00ffff;stroke-width:0.0539281"
               d="m -274.17007,288.66344 v -5.74497 l 4.13941,-0.0367 c 2.27667,-0.0202 5.17426,-0.0368 6.43907,-0.0368 2.15981,-3e-5 2.29966,-0.006 2.29966,-0.0974 0,-0.0535 -0.0471,-0.12827 -0.10454,-0.16607 -0.12502,-0.0822 -12.73958,-12.51622 -12.76484,-12.58217 -0.01,-0.0251 -0.0629,-0.0458 -0.11827,-0.0458 -0.0987,0 -0.10075,0.1291 -0.10075,6.36268 v 6.36268 l -2.64133,4e-5 c -1.45273,2e-5 -4.43311,0.0165 -6.62305,0.0368 l -3.98171,0.0367 v -6.42711 -6.4271 h 13.21981 13.21981 v 12.25507 12.25507 h -6.49163 -6.49164 z"
               id="path136-2-4" />
            <rect
               style="fill:#782121;stroke-width:0.233306"
               id="rect230"
               width="24.289225"
               height="37.824665"
               x="-307.67688"
               y="300.18054"
               ry="1.8900573" />
            <path
               style="fill:none;stroke:#000000;stroke-width:0.233306px;stroke-linecap:butt;stroke-linejoin:miter;stroke-opacity:1"
               d="m -295.43402,300.18326 c 0.24713,37.81535 0.24713,37.81535 0.24713,37.81535 0,0 -0.0617,-23.4871 -0.0617,-23.5433 0,-0.0562 -12.47974,-0.0562 -12.47974,-0.0562 l 24.27987,0.11237"
               id="path232" />
            <path
               sodipodi:type="star"
               style="fill:#d40000;stroke-width:0.264583"
               id="path253"
               sodipodi:sides="3"
               sodipodi:cx="-133.80357"
               sodipodi:cy="181.05058"
               sodipodi:r1="51.099529"
               sodipodi:r2="27.896214"
               sodipodi:arg1="-1.199905"
               sodipodi:arg2="0.3153506"
               inkscape:flatsided="false"
               inkscape:rounded="0"
               inkscape:randomized="0"
               d="m -115.28274,133.42558 7.99975,56.27701 5.46346,31.20001 -52.73719,-21.21052 -29.75173,-10.86851 44.73744,-35.06649 z"
               inkscape:transform-center-x="-11.023851"
               inkscape:transform-center-y="-13.252337"
               transform="matrix(1.2676804,-0.35976451,0.51083536,0.92059162,-218.12026,19.131932)" />
            <path
               id="path635"
               style="fill:#ffffff;stroke-width:0.133635"
               d="m -226.5548,374.04988 -1.76216,0.98186 c -5.02474,2.80009 -10.4904,5.38067 -15.64918,7.38817 -4.38412,1.70605 -8.8333,3.1624 -13.32735,4.37287 0.31415,-0.0283 -0.47462,0.15891 1.00356,-0.16277 0.30458,-0.0663 0.60453,-0.15243 0.90589,-0.23204 1.09845,-0.29028 0.74644,-0.17772 1.45521,-0.42789 v -0.003 c 0.23155,-0.0817 0.44441,-0.12423 0.63613,-0.13436 0.92165,-0.0487 1.35315,0.64574 1.00821,1.27074 0.0232,-0.008 0.0465,-0.0161 0.0698,-0.0243 0.31704,-0.12901 0.65003,-0.21783 0.97255,-0.33229 0.0209,-0.0108 0.0481,-0.0243 0.0615,-0.032 0.0319,-0.008 0.12682,-0.0357 0.0961,-0.0243 -0.0519,0.0204 -0.10506,0.0377 -0.15762,0.0563 -0.0945,0.0491 -0.22843,0.11464 -0.16071,0.0966 0.1203,-0.0319 0.23839,-0.0721 0.35708,-0.10953 0.0686,-0.0721 0.12809,-0.13018 0.15658,-0.14521 0.23754,-0.12507 0.4855,-0.22823 0.73484,-0.32866 0.11156,-0.0716 0.23175,-0.13497 0.33693,-0.21138 0.45277,-0.32893 0.54846,-0.31374 1.18959,-0.59322 0.17994,-0.0491 0.36236,-0.089 0.53951,-0.1473 0.14577,-0.048 0.37342,-0.16742 0.51418,-0.25889 -0.007,0.003 -0.0134,0.004 -0.0202,0.006 -0.0154,0.004 0.0572,-0.0287 0.0439,-0.019 -0.006,0.004 -0.0171,0.01 -0.0238,0.014 0.31585,-0.0895 0.63097,-0.18222 0.9462,-0.2739 -0.0126,-0.003 -0.0251,-0.004 -0.0377,-0.006 -0.0192,-0.003 -0.0561,0.007 -0.0837,0.0169 0.12417,-0.0532 0.25091,-0.10017 0.37775,-0.14676 0.29759,-0.10967 0.17028,-0.0292 0.29663,-0.11473 0.55723,-0.35795 0.52966,-0.35242 1.52342,-0.59481 0.19986,-0.0491 0.41069,-0.03 0.61443,-0.0584 0.17391,-0.0243 0.34435,-0.0664 0.51676,-0.0997 0.22776,-0.0236 0.44177,-0.0913 0.65268,-0.16899 0.12112,-0.0822 0.25043,-0.13171 0.38085,-0.14521 0.13311,-0.0518 0.26694,-0.10141 0.40411,-0.14107 0.11577,-0.0335 0.23142,-0.0836 0.35192,-0.0816 0.0233,0 0.0465,0.003 0.0698,0.004 0.12661,-0.0519 0.21739,-0.0832 0.30283,-0.10594 0.26522,-0.18756 0.11434,-0.0873 0.75344,-0.36898 0.46035,-0.20291 0.69591,-0.259 1.24023,-0.38602 1.22635,-0.2862 -0.0805,0.0776 0.86042,-0.19379 0.0816,-0.0267 0.16673,-0.0436 0.24443,-0.0801 0.18584,-0.0874 0.34925,-0.21693 0.52813,-0.31781 0.22816,-0.12869 0.44343,-0.21977 0.68213,-0.32557 0.23254,-0.0959 0.47316,-0.16981 0.70693,-0.26251 0.0626,-0.0248 0.12218,-0.0583 0.18759,-0.0744 0.2511,-0.0617 0.50644,-0.10542 0.75964,-0.15813 0.17582,2.4e-4 0.3514,0.007 0.5271,10e-4 0.0114,-5.3e-4 -0.0359,-0.0116 -0.0279,-0.0196 0.0107,-0.0105 0.51984,-0.15378 0.56224,-0.16278 0.25763,-0.054 0.51817,-0.0938 0.77722,-0.14056 0.0418,-0.005 0.0837,-0.008 0.12557,-0.0124 5.3e-4,-2.6e-4 0.001,-0.001 0.002,-0.002 0.0646,-0.0416 0.36085,-0.23569 0.43305,-0.26459 0.13512,-0.054 0.27549,-0.0933 0.41496,-0.13539 -0.005,-7.9e-4 -0.0182,0.001 -0.0139,-5.3e-4 0.0213,-0.01 0.0447,-0.0131 0.0677,-0.0176 -0.0179,0.005 -0.0358,0.0111 -0.0538,0.0165 0.009,0.002 0.0185,0.005 0.0269,0.002 0.018,-0.007 0.0352,-0.016 0.0527,-0.0243 0.002,-5.3e-4 0.005,-0.002 0.007,-0.003 5.3e-4,-1.6e-4 0.001,-1.6e-4 0.002,-5.3e-4 0.0582,-0.0266 0.11589,-0.0547 0.17467,-0.0801 0.1795,-0.0776 0.38005,-0.18529 0.58291,-0.20309 0.0977,-0.071 0.1835,-0.13306 0.2806,-0.20826 0.18193,-0.14099 0.35495,-0.30176 0.56379,-0.40204 0.23627,-0.21692 0.18751,-0.19038 0.49816,-0.38086 0.0325,-0.02 0.0678,-0.0366 0.10439,-0.0475 0.0136,-0.004 0.0306,0.0122 0.0424,0.004 0.12039,-0.0803 0.18332,-0.23261 0.32039,-0.29301 0.0422,-0.0348 0.0841,-0.0696 0.12661,-0.10387 0.0345,-0.0278 0.0726,-0.0513 0.10439,-0.0822 0.0776,-0.0753 0.13242,-0.16423 0.19172,-0.25373 -0.0157,0.0303 -0.0531,0.1253 -0.0362,0.0956 0.0705,-0.12399 0.10976,-0.2675 0.19896,-0.37879 0.12586,-0.15705 0.3138,-0.35049 0.52555,-0.41599 0.51696,-0.41172 -0.49956,0.36706 0.87643,-0.35967 0.13721,-0.0725 -0.28354,0.0515 -0.44907,0.0961 -0.0167,0.0118 -0.0325,0.0249 -0.0496,0.0362 -0.0122,0.008 0.0164,-0.0273 0.0305,-0.031 0.004,-0.001 0.0144,-0.004 0.0191,-0.005 0.12002,-0.0847 0.2322,-0.17985 0.3576,-0.25683 0.0494,-0.0344 0.21275,-0.14737 0.25425,-0.18087 0.0946,-0.0765 0.17653,-0.16778 0.27285,-0.24236 0.0539,-0.10286 0.11043,-0.2043 0.17311,-0.30334 0.0787,-0.12434 0.18814,-0.30453 0.29094,-0.41496 0.0835,-0.0897 0.17744,-0.16882 0.26614,-0.25322 0.0291,-0.0203 0.0574,-0.0419 0.0873,-0.061 0.0142,-0.009 0.0319,-0.0132 0.045,-0.0238 0.054,-0.0437 0.10015,-0.0965 0.15554,-0.1385 0.2267,-0.17176 0.37159,-0.24546 0.48266,-0.23719 0.0211,-0.0188 0.0437,-0.0372 0.0651,-0.0558 -0.004,7.9e-4 -0.008,0.003 -0.0129,0.004 -0.034,0.004 0.0179,-0.0192 0.0413,-0.0284 0.0376,-0.0323 0.0739,-0.0646 0.11317,-0.0971 0.0539,-0.042 0.0962,-0.0742 0.14056,-0.10645 0.0559,-0.0622 0.11326,-0.11943 0.17983,-0.14005 0.13692,-0.10856 0.15532,-0.12186 0.18397,-0.14366 0.0269,-0.035 0.057,-0.0717 0.0842,-0.10387 0.0297,-0.0578 0.0605,-0.11491 0.0878,-0.17363 0.0556,-0.0597 0.10696,-0.12401 0.1664,-0.17983 z m -128.78335,0.13178 -0.78083,0.002 c 0.004,0.009 0.01,0.0175 0.014,0.0269 0.0398,0.0383 0.0705,0.0906 0.10955,0.13022 0.0696,0.10258 0.14218,0.20296 0.20877,0.30748 0.0134,0.021 0.0215,0.0452 0.031,0.0682 0.005,0.0116 0.0195,0.0384 0.0119,0.0357 0.0244,0.0143 0.0278,0.0179 0.0589,0.0357 0.0873,0.0795 0.17677,0.15655 0.26148,0.23875 0.1827,0.1773 0.35355,0.36657 0.52917,0.55087 0.0725,0.076 0.23648,0.25518 0.30902,0.31988 0.0772,0.0688 0.16093,0.12982 0.24133,0.19482 0.0795,0.0892 0.16061,0.17709 0.2403,0.26613 0.001,7.9e-4 0.003,7.9e-4 0.004,0.002 0.0387,0.0242 0.0729,0.0549 0.11162,0.0791 0.0664,0.0414 0.19184,0.10641 0.26562,0.14521 0.26394,0.13024 0.5159,0.27401 0.76274,0.4346 0.0704,0.0458 0.13098,0.10956 0.20774,0.14366 0.0226,0.0101 0.0466,-0.0187 0.0713,-0.0191 0.0404,-7.9e-4 0.0799,0.011 0.11989,0.016 0.312,0.0718 0.61342,0.1732 0.90847,0.29611 0.10987,0.0458 0.21042,0.0943 0.3235,0.1297 0.50148,0.19089 0.93703,0.50658 1.38234,0.7984 0.27443,0.18492 0.58013,0.32787 0.80254,0.5824 0.0933,0.10673 0.14248,0.24757 0.23668,0.35346 0.0223,0.0251 -0.0446,-0.10425 -0.0114,-0.10025 0.06,0.008 0.0926,0.0776 0.13901,0.11628 0.0115,0.008 0.52064,0.38632 0.57206,0.41392 0.0173,0.009 0.0737,-10e-4 0.0579,-0.0129 -0.0971,-0.0716 -0.23603,-0.0531 -0.0677,-0.0532 0.16014,0.0321 0.32237,0.0555 0.48059,0.0961 0.0613,0.0157 0.11823,0.0454 0.1757,0.0718 0.2088,0.096 0.40149,0.21733 0.59376,0.3421 0.12774,-0.0453 0.38109,0.20939 0.50333,0.28009 0.0181,0.0104 0.0419,0.003 0.0615,0.0103 0.0515,0.0189 0.10027,0.0452 0.15037,0.0677 0.12563,0.0676 0.25203,0.13327 0.37673,0.20257 0.0823,0.0457 0.16135,0.0969 0.24391,0.14211 0.11719,0.0642 0.18981,0.0793 0.36483,0.1571 0.15853,0.0423 0.28218,0.16461 0.43512,0.21911 0.0829,0.0295 0.17086,0.0413 0.25631,0.0625 0.0953,0.0237 0.18918,0.0544 0.28578,0.0718 0.22184,0.0399 0.40506,0.0489 0.62425,0.0651 0.38569,0.0163 0.651,-0.0133 1.03404,0.13022 0.23825,0.0893 0.42818,0.25451 0.62064,0.41186 0.037,0.003 0.0611,0.0456 0.0971,0.0496 0.007,7.9e-4 -0.002,-0.0131 -0.004,-0.0202 0.0132,0.002 0.0275,10e-4 0.0398,0.006 0.43024,0.18294 0.3152,0.12348 0.61909,0.32195 0.0929,0.054 0.18592,0.1082 0.27905,0.16174 0.0877,0.0505 0.17296,0.10517 0.26355,0.15038 0.0463,0.023 0.096,0.0398 0.14573,0.0543 0.0153,0.005 -0.0274,-0.0159 -0.0413,-0.0238 0.12095,0.0525 0.24595,0.0959 0.36276,0.15711 0.0736,0.0385 0.13708,0.0937 0.20568,0.14054 0.22339,0.14857 0.41892,0.33632 0.6413,0.48628 0.17549,0.11835 0.3574,0.22699 0.53795,0.33745 0.30211,0.18484 0.60703,0.36542 0.93121,0.50901 0.25432,0.0916 0.50853,0.17952 0.75861,0.28268 0.0662,0.0273 0.13064,0.0575 0.19637,0.0858 0.0273,0.0119 0.0623,0.013 0.0827,0.0346 10e-4,0.003 -0.004,-0.003 -0.003,0 0.25026,0.0903 0.49482,0.19309 0.73535,0.30747 0.0718,0.0341 0.14009,0.0752 0.21291,0.10697 0.0773,0.0337 0.18784,0.0647 0.27234,0.0899 0.27957,0.0605 0.56219,0.10459 0.84542,0.14367 0.16019,0.0225 0.31001,0.0494 0.47026,0.0201 0.32341,0.0233 0.66915,0.0383 0.96945,0.18084 0.10061,0.0478 0.18985,0.11665 0.28732,0.17055 0.0353,0.0196 -0.0653,-0.048 -0.10025,-0.0682 -0.008,-0.013 0.0646,0.0386 0.0532,0.0233 -0.008,-0.0109 -0.0467,-0.0151 -0.0346,-0.0212 0.0163,-0.008 0.0358,0.007 0.0532,0.0119 0.16625,0.05 0.1945,0.0622 0.27646,0.10025 0.0848,0.003 0.11902,0.007 0.14263,0.0114 0.11257,-0.005 0.13343,-0.006 0.25839,-0.006 0.19987,-0.004 0.37599,0.0164 0.57722,0.061 0.002,0 0.004,0.003 0.006,0.003 0.15474,0.0322 0.49567,0.0736 0.65319,0.19481 0.32736,0.25197 0.36626,0.30504 0.49868,0.50644 0.22618,0.0285 0.47758,0.10679 0.74982,0.25527 0.67999,0.3709 0.4999,0.27541 1.31207,0.70282 0.17902,0.0942 0.35463,0.1956 0.53795,0.28112 1.18944,0.55493 0.0598,0.0217 0.58136,0.20875 0.12399,0.0445 0.24428,0.0989 0.36638,0.14833 0.33117,0.17827 0.22566,0.10689 0.61082,0.41341 0.079,0.0629 0.14975,0.13539 0.22944,0.1974 0.11704,0.091 0.27496,0.16317 0.40308,0.23358 0.38024,0.22191 0.79825,0.3661 1.19579,0.55139 0.1258,0.0586 0.24908,0.12264 0.37311,0.185 0.0991,0.0294 0.19832,0.0584 0.30024,0.077 0.59951,0.14065 0.279,0.0541 0.93637,0.32711 0.28494,0.0623 0.55856,0.13713 0.81029,0.22066 0.0363,0.004 0.0723,0.008 0.10904,0.01 0.31511,0.0279 0.44417,0.0374 0.77876,0.0786 0.018,0.003 0.0688,0.003 0.0527,0.0124 -0.0334,0.0177 -0.10374,0.0276 -0.12816,0.0325 0.003,0 0.006,-1.6e-4 0.008,0.003 0.14915,-0.0116 0.29182,-0.0942 0.447,-0.0548 0.35908,0.005 0.3876,-0.005 0.79943,0.0563 0.0901,0.0135 0.17777,0.0404 0.26665,0.0605 0.043,0.0151 0.0844,0.0375 0.1292,0.0455 0.11791,0.022 0.24334,-0.0353 0.35915,0.0161 0.0231,0.003 0.45253,0.0409 0.48214,0.0429 0.15297,0.009 0.30781,-0.007 0.46095,0 0.46257,3e-5 0.92495,3e-5 1.38751,0 h 0.73588 c 0.0262,-1.1e-4 0.0524,0 0.0785,0 0.0917,-0.004 -0.34465,0.0384 0.96739,-0.0672 0.20253,-0.0164 0.40439,-0.0384 0.60668,-0.0574 0.61072,-0.0966 1.22829,-0.0326 1.83813,0.0305 0.53743,0.0556 0.62181,0.074 1.20716,0.15761 0.56823,0.0907 0.49315,0.0561 1.14618,0.29766 0.1443,0.0534 0.27958,0.12774 0.42065,0.18915 0.0973,0.0424 0.19569,0.082 0.29352,0.12298 0.0613,0.0222 0.11977,0.0458 0.18242,0.0765 0.0349,0.0143 0.0695,0.0292 0.10439,0.0434 0.0733,-0.003 0.1468,-0.006 0.22014,-0.008 0.55183,-0.01 1.07903,-0.007 1.6185,0.14573 0.184,0.0907 0.36407,0.18709 0.5271,0.3085 0.0687,0.0246 0.27525,0.0987 0.30438,0.11938 0.009,0.006 -0.0123,0.019 -0.0186,0.0279 0.12016,0.0241 0.24314,0.0355 0.36018,0.0718 0.25785,0.08 0.39274,0.17449 0.6196,0.30179 0.0976,0.0547 0.19458,0.11157 0.29404,0.16277 0.0622,0.0321 0.13002,0.052 0.19069,0.0868 0.0504,0.0289 0.0983,0.0622 0.14728,0.0935 0.02,0.003 0.0398,0.008 0.0599,0.0114 0.15134,0.0214 0.30379,0.0341 0.45579,0.0501 0.1092,-0.003 0.21841,1.1e-4 0.32763,-0.003 0.0879,0.005 0.17574,0.008 0.26355,0.0156 0.0333,0.003 0.23337,0.0295 0.26768,0.0315 0.1695,0.01 0.34267,-0.005 0.50953,0.0367 -0.0175,0.003 -0.0698,0.006 -0.0522,0.008 0.0456,0.004 0.0917,-0.003 0.13746,0 0.0625,0.003 0.12473,0.008 0.18706,0.0135 0.25845,0.022 0.22974,0.0267 0.50333,0.046 0.043,0.003 0.0861,0.004 0.1292,0.006 0.15914,0.003 0.32046,0.0111 0.47955,0 0.0685,-0.005 0.1367,-0.0161 0.20516,-0.0222 0.11198,-0.01 0.22378,-0.0154 0.33589,-0.0233 10e-4,0 0.002,0.003 0.003,0.003 0.33436,-0.007 0.67207,-0.0511 1.00614,-0.0388 0.048,0.003 0.0946,0.0222 0.14262,0.0201 0.0301,0 0.0571,-0.019 0.0858,-0.0279 0.26331,-0.0943 -0.0556,0.0246 0.27233,-0.11835 0.0923,-0.0402 0.18626,-0.0761 0.27957,-0.11369 10e-4,0 0.002,8e-5 0.004,-0.003 2.6e-4,-1.9e-4 7.9e-4,0 0.001,0 0.027,-0.0156 0.0535,-0.0322 0.0816,-0.0455 0.009,-0.005 -0.0168,0.01 -0.0238,0.018 -0.006,0.007 -0.0204,0.0297 -0.0134,0.0238 0.0624,-0.0499 0.11547,-0.11121 0.18087,-0.15711 0.30538,-0.21445 0.28778,-0.18735 0.5979,-0.29816 0.14401,-0.0241 0.28701,-0.0556 0.43201,-0.0729 0.0551,-0.007 0.1109,0 0.1664,0 0.24676,0 0.49448,0.006 0.74104,-0.005 0.0776,-0.003 0.15354,-0.004 0.22944,-0.003 0.0759,0.003 0.15136,0.005 0.22893,0.0124 0.10405,0.009 0.14827,0.0236 0.25735,0.0284 0.0613,0.003 0.12257,0.003 0.18397,0.003 0.10502,0.006 0.21033,0.009 0.31522,0.0172 0.34124,0.0249 0.12101,0.03 0.54932,0.0439 0.0946,0.003 0.18911,-0.007 0.28371,-0.003 0.0356,0.003 0.0697,0.0196 0.10542,0.0185 0.077,-0.003 0.15304,-0.019 0.22944,-0.029 0.27411,0 0.54761,0.0185 0.82166,0.0274 0.74098,0.0241 1.03344,0.019 1.81746,0.0889 0.0975,0.009 0.19205,0.0347 0.28835,0.0522 0.1262,0.0185 0.25177,0.0439 0.37879,0.0553 0.10956,0.0101 0.21981,0.004 0.32969,0.009 0.18959,0.009 0.37922,0.0183 0.56844,0.0331 0.46027,0.0359 0.9682,0.10863 1.41232,0.18552 0.26231,0.0454 0.52195,0.10541 0.7829,0.15812 0.3597,0.069 0.71866,0.1416 1.079,0.20722 0.28261,0.0515 0.56643,0.0977 0.85008,0.14314 0.094,-0.009 0.18753,-0.022 0.28164,-0.0299 0.43486,0.0151 0.85843,-0.0944 1.28571,-0.15608 0.16642,-0.0241 0.33339,-0.0416 0.50023,-0.0625 0.40123,-0.003 0.76951,-0.17881 1.16633,-0.21551 0.0955,-0.009 0.19194,-0.003 0.28784,-0.003 0.0927,0 0.18534,-0.003 0.27802,-0.003 0.0866,-0.0675 0.20828,-0.1275 0.31368,-0.17674 -0.0521,-0.0898 -0.10281,-0.18177 -0.13798,-0.26355 -0.0304,-0.0707 -0.13285,-0.27165 -0.0786,-0.21704 0.1226,0.12303 0.18925,0.30552 0.29197,0.44493 0.003,-0.003 0.009,-0.004 0.0119,-0.006 0.10864,-0.0238 0.21633,-0.0535 0.32556,-0.0734 -0.0887,-0.49644 -0.25076,-1.00439 -0.10852,-1.464 -24.30624,1.61827 -48.8386,-3.6214 -70.62359,-15.5329 z m -0.7369,0.0925 c 0.0426,0.0937 0.0861,0.18767 0.14728,0.2558 0.0481,0.0536 -0.0489,-0.13711 -0.0884,-0.19741 -0.0103,-0.0157 -0.0371,-0.0377 -0.0589,-0.0584 z m -3.39049,0.32401 c 0.031,0.0198 0.0556,0.0521 0.0817,0.0806 -0.062,-0.0545 -0.11328,-0.10076 -0.0817,-0.0806 z m 2.2474,0.17777 c 0.0526,0.0371 0.10403,0.0761 0.1602,0.108 0.1434,0.0741 0.28728,0.14213 0.42995,0.21963 0.16474,0.0895 0.12494,0.14171 0.16588,0.0806 -0.0259,-0.01 -0.10454,-0.0375 -0.078,-0.0294 0.0729,0.0219 0.14762,0.0412 0.21756,0.0713 0.0693,0.0298 0.13153,0.0732 0.19844,0.108 0.0266,0.0138 0.0569,0.0251 0.0858,0.0377 -0.003,-0.0233 -0.009,-0.0475 -0.0217,-0.0744 -0.18799,-0.39321 -0.67451,-0.45575 -1.15807,-0.52141 z m 0.0377,0.66972 c -0.0222,-0.002 -0.089,0.009 -0.13694,0.0139 0.0251,0.0295 0.05,0.0589 0.0775,0.0889 0.0928,-0.0571 0.12977,-0.0962 0.0594,-0.10283 z m -0.39843,0.0537 c 0.005,0.0115 0.005,0.0148 0.0124,0.0305 10e-4,5.3e-4 0.002,5.3e-4 0.003,0.001 -0.005,-0.0106 -0.01,-0.021 -0.0145,-0.0315 -2.7e-4,6e-5 -8e-4,-5e-5 -0.001,0 z m 0.0155,0.0315 c 0.001,0.002 0.003,0.005 0.004,0.007 0.035,0.0378 0.0765,0.0659 0.13074,0.0739 0.0153,0.002 0.04,0.003 0.0579,0.005 0.006,-0.003 0.014,-0.008 0.0202,-0.0109 -0.0245,-0.004 -0.0496,-0.004 -0.0739,-0.009 -0.0191,-0.004 -0.0842,-0.0388 -0.13849,-0.0661 z m 0.004,0.007 c -10e-4,-0.002 -0.003,-0.002 -0.005,-0.004 0.01,0.0212 0.011,0.0266 0.0165,0.0398 -0.0155,-0.0194 -0.0308,-0.0386 -0.0465,-0.0579 -0.008,-0.004 -0.0111,-0.006 -0.0196,-0.0103 -0.094,0.0175 -0.17717,0.0319 -0.29559,0.0563 0.1021,0.0591 0.20499,0.12098 0.30334,0.17725 0.0508,-0.0242 0.0722,-0.0389 0.11679,-0.061 -0.0123,-0.0233 -0.0261,-0.0469 -0.0377,-0.0698 -0.003,-0.006 -0.006,-0.0131 -0.009,-0.0196 l -5.3e-4,-5.3e-4 c -0.008,-0.0169 -0.0159,-0.0336 -0.0233,-0.0506 z m -0.005,-0.004 c -10e-4,-0.002 -10e-4,-0.002 -0.002,-0.005 -0.002,-0.001 -0.003,-0.002 -0.005,-0.003 0.002,0.003 0.005,0.005 0.007,0.007 z m 5.37073,3.2029 c -0.0113,-0.0169 0.0158,0.026 0.0315,0.0517 l 5.3e-4,-5.3e-4 c -0.011,-0.0188 -0.0136,-0.0237 -0.032,-0.0512 z m 1.62884,1.603 c 0.0202,0.0241 0.0237,0.032 0.0372,0.0465 0.002,0.002 0.003,-0.003 0.007,-0.004 -0.009,-0.0112 -0.0187,-0.0219 -0.0279,-0.0331 -0.005,-0.003 -0.0108,-0.006 -0.016,-0.01 z m 17.57774,5.44204 v 0 c -0.0523,-0.008 -0.21131,-0.004 -0.15865,0 0.11903,0.0114 0.17714,0.0151 0.23048,0.018 -0.024,-0.006 -0.0473,-0.0153 -0.0718,-0.0191 z m 0.19172,0.0522 v 0.003 c 0.007,0.003 0.006,0.003 0.0134,0.006 -0.003,-0.003 -0.002,-0.003 -0.003,-0.003 -0.004,0 -0.007,-0.005 -0.0109,-0.005 z m 68.29092,2.67994 c -5.61344,1.17279 -11.27929,1.96808 -16.95969,2.38847 0.16195,0.0359 0.3241,0.0771 0.45165,0.1101 0.72926,0.18846 -0.0632,0 0.90641,0.22169 0.13435,0.0285 0.2666,0.0697 0.40307,0.0853 0.45481,0.0518 1.81871,0.14126 2.30477,0.16796 1.71623,0.0943 3.43221,0.15166 5.15007,0.20875 0.61306,0.0222 1.22593,0.0394 1.83917,0.0543 0.047,-0.005 0.0885,-0.008 0.13384,-0.013 0.0741,-0.0995 0.15351,-0.19492 0.24546,-0.28112 0.13414,-0.10346 0.26393,-0.21326 0.40256,-0.31057 0.0418,-0.0293 0.0919,-0.0442 0.13694,-0.0682 0.0743,-0.0397 0.14886,-0.0789 0.22066,-0.12301 0.86272,-0.53051 -0.76306,0.41389 0.66663,-0.40409 0.0399,-0.0241 -0.0829,0.0417 -0.12454,0.0625 0.28981,-0.16561 0.56525,-0.35579 0.84749,-0.53383 0.0581,-0.0366 0.1482,-0.171 0.1757,-0.108 0.24794,0.56751 0.38412,1.1561 0.45475,1.47124 0.0159,-0.003 0.0206,-0.003 0.0367,-0.004 -0.0321,-0.27845 -0.0924,-0.79933 -0.18139,-1.68519 0.4111,-0.18407 0.0929,-0.048 0.62167,-0.24804 0.56187,-0.21257 0.44884,-0.16912 0.91674,-0.36637 0.11047,-0.0465 0.22375,-0.0865 0.33125,-0.13954 0.0704,-0.0348 0.13453,-0.082 0.20153,-0.12298 0.11399,-0.0582 0.22552,-0.12068 0.34158,-0.17468 0.0965,-0.0449 0.19568,-0.0835 0.29507,-0.12142 0.0743,-0.0283 0.11741,-0.0426 0.18191,-0.0667 z m 5.15679,0.66302 c -0.0425,0.003 -0.0851,0.004 -0.12713,0.01 -0.0499,0.007 -1.14475,0.20029 -1.18545,0.20929 -0.24305,0.0528 -0.48267,0.12014 -0.72399,0.18034 -0.14736,0.043 -0.29531,0.0834 -0.44183,0.12919 -0.25858,0.0809 -1.27553,0.41095 -1.59732,0.52348 -0.0437,0.0151 -0.26027,0.0941 -0.47284,0.17518 0.2836,-0.0699 0.52822,-0.12869 0.92552,-0.23254 0.53596,-0.14007 1.06971,-0.28879 1.60456,-0.43304 0.31715,-0.0895 0.63387,-0.1799 0.95136,-0.26821 0.35535,-0.0988 0.71131,-0.19609 1.06712,-0.29351 z m -7.34994,0.5493 c 0.0262,0.3841 0.071,1.05979 0.092,1.49707 0.006,-0.003 0.012,-0.005 0.0181,-0.008 -0.0917,-1.24878 -0.14051,-1.93585 -0.11007,-1.48931 z m -8.99894,3.82561 c 0.0509,0.0844 0.11023,0.16354 0.17209,0.23667 0.17916,-0.0885 0.32646,-0.157 0.447,-0.20875 -0.20636,-0.009 -0.41273,-0.019 -0.61909,-0.0279 z m -17.45009,0.73277 c 0.0468,0.0634 0.0844,0.12231 0.11265,0.16899 0.0935,-0.0459 0.19536,-0.088 0.30748,-0.12454 -0.16887,-0.03 -0.26523,-0.0382 -0.42013,-0.0444 z" />
            <path
               id="path639"
               style="fill:#ffffff;stroke-width:0.188988"
               d="m -192.77856,357.62815 c 1.9e-4,7.9e-4 2.6e-4,0.002 5.3e-4,0.003 0.002,0.007 0.0114,0.008 0.0227,0.009 -0.003,-0.004 -0.005,-0.007 -0.008,-0.0104 -0.005,-2.6e-4 -0.0104,-7.9e-4 -0.0155,-10e-4 z" />
            <path
               id="path643"
               style="fill:#ffffff;stroke-width:0.188988"
               d="m -194.18054,347.41637 c -0.15379,-0.0174 -0.40612,0.22092 -0.9555,0.85318 -5.24522,6.03642 -12.19941,12.48463 -18.85673,17.48471 -2.72134,2.04391 -9.09607,6.33147 -10.97917,7.38457 -0.66577,0.37232 -1.21078,0.71196 -1.21078,0.75499 0,0.0246 0.62216,0.0436 1.46244,0.0563 0.11422,-0.0818 0.23627,-0.1548 0.36122,-0.21549 0.005,-0.003 -0.0329,0.0216 -0.004,0.0176 0.0533,-0.0448 0.10268,-0.0944 0.15968,-0.13435 0.33393,-0.23461 0.24341,-0.15537 0.47181,-0.2713 0.36246,-0.18403 -0.0594,0.008 0.46043,-0.21705 0.005,-2.6e-4 0.009,-2e-4 0.0139,-5.3e-4 0.0852,-0.0634 0.17214,-0.11542 0.26149,-0.16071 0.0392,-0.0394 0.0795,-0.0753 0.1173,-0.10387 0.007,-0.005 0.0149,-0.0106 0.0222,-0.016 0.12521,-0.11672 0.26902,-0.21181 0.37982,-0.27802 0.0564,-0.0638 0.14933,-0.13494 0.21136,-0.18345 0.0482,-0.0365 0.37142,-0.28246 0.39222,-0.29146 0.0552,-0.0229 0.11257,-0.0404 0.17002,-0.0579 0.0141,-0.0532 0.0892,-0.0818 0.13022,-0.12402 0.0759,-0.0717 0.15029,-0.14517 0.22789,-0.21497 0.12059,-0.10845 0.29981,-0.23918 0.42013,-0.32918 0.002,-0.002 0.01,-0.006 0.008,-0.004 -0.0151,0.0139 -0.0644,0.0508 -0.047,0.0398 0.0603,-0.0381 0.11855,-0.0793 0.17725,-0.11989 0.004,-0.006 0.007,-0.0122 0.0114,-0.0181 0.0369,-0.0533 0.11099,-0.068 0.16639,-0.10181 0.0908,-0.0402 0.15747,-0.0902 0.24547,-0.14314 0.31929,-0.19187 0.65282,-0.35782 0.99942,-0.49506 h 5.3e-4 c 0.05,-0.0315 0.0942,-0.0739 0.14986,-0.0935 0.0169,-0.006 0.0288,0.0395 0.0444,0.0305 8e-4,-5.3e-4 0.11841,-0.1768 0.12041,-0.1788 0.0561,-0.0836 0.0987,-0.17813 0.16846,-0.25063 0.65953,-0.68492 0.19767,-0.17824 0.46406,-0.35708 0.0298,-0.02 0.0574,-0.0432 0.0858,-0.0651 0.0497,-0.18722 0.57228,-0.37527 0.72554,-0.44389 0.0564,-0.0212 0.10948,-0.0546 0.16898,-0.0636 0.0137,-0.002 -0.0268,0.0443 -0.0139,0.0393 0.0509,-0.0212 0.0906,-0.0627 0.13797,-0.091 0.0919,-0.0548 0.16739,-0.0967 0.22945,-0.12609 0.0956,-0.0836 0.22634,-0.17119 0.29249,-0.21291 5.3e-4,-5.3e-4 0.0576,-0.0483 0.0636,-0.0486 0.007,-2.6e-4 -0.005,0.0127 -0.008,0.0196 -0.009,0.0629 -0.0172,0.12575 -0.0258,0.18861 0.0932,-0.15055 0.20323,-0.32843 0.18138,-0.2191 -0.0227,0.11394 -0.0454,0.21232 -0.0677,0.30695 0.009,-0.008 0.0165,-0.0156 0.0248,-0.0238 0.01,-0.0204 0.0278,-0.0515 0.0367,-0.0703 0.004,-0.0236 0.0116,-0.0424 0.0294,-0.0589 0.36529,-0.8089 -0.46923,0.052 0.231,-0.61081 0.051,-0.0326 0.10156,-0.0661 0.15296,-0.0982 0.0774,-0.0484 0.15518,-0.0963 0.23358,-0.14314 0.008,-0.005 0.0208,-0.0136 0.0326,-0.0217 0.01,-0.0113 0.0163,-0.0252 0.0274,-0.0357 0.001,-7.9e-4 0.003,-0.003 0.004,-0.004 0.002,-0.006 0.002,-0.0118 0.004,-0.0176 0.0314,-0.10297 0.1429,-0.14699 0.25115,-0.19327 0.0512,-0.0386 0.10124,-0.0764 0.14986,-0.1049 0.0395,-0.13358 0.26306,-0.35309 0.90537,-0.32815 0.31812,0.003 0.63638,-0.003 0.95447,-0.006 0.23164,5.3e-4 0.35586,0.003 0.55707,0.009 0.12741,-0.22692 0.25371,-0.46205 0.43201,-0.65008 0.004,0.0161 0.002,0.0621 0.0119,0.0486 0.0261,-0.0371 0.0291,-0.0863 0.045,-0.12867 0.0278,-0.0743 0.0496,-0.1511 0.0858,-0.2217 0.0667,-0.12979 0.10569,-0.19137 0.13953,-0.22634 0.0346,-0.0423 0.0865,-0.0903 0.11162,-0.1235 0.15688,-0.20678 0.23113,-0.30401 0.26148,-0.33694 -0.007,-0.0198 -0.0158,-0.0392 -0.0207,-0.0594 -0.0199,-0.0823 0.12092,-0.27147 0.19534,-0.37466 0.0235,-0.0559 0.0558,-0.12198 0.10593,-0.21962 0.0518,-0.0823 0.0964,-0.16993 0.15503,-0.24753 0.21132,-0.27967 0.2486,-0.29664 0.47646,-0.50385 0.25122,-0.22845 0.48215,-0.45964 0.7798,-0.632 0.0319,-0.0136 0.0621,-0.0325 0.0951,-0.0434 0.004,-0.001 -0.004,0.008 -0.006,0.0119 0.0172,-0.006 0.0345,-0.0126 0.0517,-0.0186 0.0359,-0.025 0.0608,-0.0646 0.0987,-0.0863 0.008,-0.005 0.0152,0.0111 0.0222,0.0171 0.17658,-0.25871 0.18096,-0.29888 0.47336,-0.524 0.0753,-0.0579 0.163,-0.0983 0.2496,-0.13746 0.39,-0.17648 0.80592,-0.28065 1.21439,-0.40308 0.37695,-0.16114 0.25556,-0.13537 0.74673,-0.19637 0.0352,-0.004 0.0705,0.004 0.10593,0.006 0.041,0.002 0.082,0.003 0.12299,0.005 0.0624,-0.0318 0.12308,-0.0534 0.18501,-0.0672 0.009,-0.0199 0.0203,-0.0389 0.0279,-0.0594 0.0239,-0.0648 0.034,-0.13424 0.0496,-0.20154 0.0776,-0.33506 0.061,-0.26751 0.11731,-0.60823 0.0469,-0.17352 0.0839,-0.34982 0.14056,-0.52038 0.038,-0.11435 0.26969,-0.49172 0.29868,-0.53692 0.29414,-0.4572 0.62725,-0.92017 1.1033,-1.202 0.16479,-0.0973 0.32598,-0.20137 0.49454,-0.29197 0.0794,-0.0427 0.16545,-0.0712 0.24805,-0.10748 0.14218,-0.0625 0.28475,-0.12482 0.42633,-0.18862 0.37647,-0.16973 0.51243,-0.24458 0.92294,-0.39843 0.0205,-0.0482 0.0409,-0.0965 0.0615,-0.14469 0.17728,-0.4745 0.55157,-0.81516 0.91829,-1.1436 0.0608,-0.0518 0.11882,-0.10725 0.18242,-0.15555 0.28367,-0.21545 0.58025,-0.41136 0.87075,-0.6165 0.004,-0.0323 0.008,-0.0651 0.0114,-0.0971 0.009,-0.10028 0.0416,-0.19754 0.0703,-0.29404 0.0206,-0.0693 0.16482,-0.49714 0.22272,-0.60978 0.062,-0.12056 0.13749,-0.23352 0.20619,-0.35036 0.0587,-0.0715 0.11172,-0.14806 0.17622,-0.21446 0.15228,-0.15676 0.25787,-0.23117 0.41806,-0.35709 0.24532,-0.19285 0.48966,-0.38689 0.73329,-0.58187 0.3183,-0.27807 0.67277,-0.51812 0.96635,-0.82321 0.19792,-0.21022 0.38705,-0.45093 0.6506,-0.58394 0.0991,-0.05 0.20352,-0.0882 0.30541,-0.13229 0.0556,-0.0172 0.11262,-0.0303 0.16692,-0.0512 0.76259,-0.29369 -0.45337,0.14459 0.41444,-0.18604 0.0165,-0.006 0.0336,-0.0109 0.0501,-0.0171 0.0194,-0.0585 0.0604,-0.15816 0.076,-0.20774 0.0503,-0.15965 0.0942,-0.31856 0.13488,-0.48111 0.0412,-0.25099 0.0696,-0.50403 0.10748,-0.75551 0.005,-0.0315 0.0149,-0.12585 0.0155,-0.0941 0.009,0.46561 -0.14995,0.11538 0.15193,0.49144 0.0208,-0.18732 0.0763,-0.49356 0.10077,-1.08572 5.2e-4,-0.0105 0.16828,-0.1522 0.20618,-0.1912 -0.005,0.005 -0.0189,0.018 -0.0139,0.0139 0.76412,-0.6148 -0.018,-0.002 0.33641,-0.25373 0.0206,-0.0147 -0.085,0.0545 -0.0656,0.0382 0.0572,-0.0479 0.1151,-0.0951 0.1726,-0.14263 0.0339,-0.0238 0.0742,-0.04 0.10181,-0.0708 0.01,-0.0111 -0.0479,0.0181 -0.0429,0.005 0.0143,-0.0382 0.0502,-0.0639 0.0765,-0.0951 0.0671,-0.0796 0.12912,-0.1652 0.20722,-0.2341 0.0554,-0.0488 0.1138,-0.0941 0.17156,-0.14004 -0.0278,0.0104 0.042,-0.0708 0.0972,-0.15141 0.0269,-0.0392 0.0538,-0.0791 0.0858,-0.11421 0.0412,-0.0451 0.0861,-0.0865 0.13022,-0.12867 0.0398,-0.0678 0.0782,-0.12882 0.0713,-0.10387 -0.005,0.0172 -0.0123,0.0336 -0.0176,0.0506 l 0.001,-10e-4 c 0.1992,-0.16255 0.0643,-0.0524 -0.007,0.0181 -0.0518,0.16285 -0.12085,0.32022 -0.18035,0.48059 0.0835,0.73828 -0.0228,0.17985 0.47905,-0.80977 -0.0231,0.0139 -0.12738,0.0836 -0.11989,0.0786 0.03,-0.0451 0.0693,-0.0928 0.12919,-0.15451 -0.004,0.003 -0.008,0.007 -0.0119,0.0103 -0.01,0.008 0.0127,-0.022 0.0207,-0.032 0.0444,-0.0544 0.09,-0.10771 0.13539,-0.16124 -0.0213,-0.017 -0.0447,-0.0275 -0.0708,-0.0305 z m -25.18348,23.11073 c -0.0348,0.0153 -0.0721,0.0263 -0.10387,0.047 -0.027,0.0176 0.0612,-0.0211 0.0894,-0.0367 0.005,-0.003 0.009,-0.007 0.0145,-0.0104 z m 24.99589,-22.74486 c 0.0131,2.5e-4 0.004,0.024 -0.0915,0.12092 -0.0195,0.0199 0.029,-0.0474 0.0434,-0.0713 0.0139,-0.0214 0.0202,-0.0292 0.03,-0.0439 0.007,-0.003 0.0137,-0.006 0.0181,-0.006 z m -0.56741,1.57148 c 0.0388,0.0555 0.081,0.10892 0.12248,0.16278 0.0148,-0.018 0.0293,-0.0343 0.0439,-0.0517 -0.0478,-0.0326 -0.0854,-0.0596 -0.1664,-0.1111 z m -0.54053,0.76842 c -0.0107,0.003 -0.0215,0.005 -0.032,0.008 -0.008,0.002 -0.0256,0.0185 -0.0186,0.0155 0.0228,-0.008 0.0326,-0.0157 0.0506,-0.0233 z m 0.15555,0.0724 c -0.0954,0.0138 -0.18035,0.0237 -0.2496,0.0284 0.0209,0.0697 0.038,0.14037 0.0501,0.21188 0.018,-0.004 0.035,-0.0103 0.0527,-0.015 0.0485,-0.0752 0.0954,-0.14945 0.14677,-0.22479 0,0 0,-5.3e-4 0,-5.3e-4 z m -1.094,0.97359 c -0.009,0.002 -0.008,0.01 -0.005,0.0264 0.003,-0.009 0.005,-0.0178 0.008,-0.0264 -1.9e-4,3e-5 -0.002,-5e-5 -0.003,0 z m 0.0584,0.005 c -0.0129,0.0124 -0.0275,0.0304 -0.0326,0.0465 -0.0384,0.11922 -0.0689,0.24107 -0.11214,0.35864 -0.0101,0.0276 0.008,-0.0582 0.0124,-0.0873 0.003,-0.0183 0.007,-0.0309 0.01,-0.0481 -0.0299,0.0575 -0.0779,0.12965 -0.14108,0.21187 0.0954,-0.0345 0.19092,-0.0687 0.28784,-0.0987 0.0422,-0.0131 0.0844,-0.0262 0.12713,-0.0377 0.008,-0.10997 0.0115,-0.22003 0.0134,-0.33022 -0.0873,-0.008 -0.13998,-0.0127 -0.16485,-0.015 z m -14.68179,13.35009 c -0.0156,0.003 -0.0281,0.0106 -0.0222,0.0196 0.0753,0.11613 0.15479,0.22959 0.23565,0.3421 0.0135,-0.0146 0.0362,-0.0389 0.0491,-0.0527 -0.066,-0.0955 -0.13862,-0.19499 -0.22169,-0.3018 -0.007,-0.008 -0.0253,-0.0103 -0.0408,-0.007 z m -0.92088,1.11052 c -0.006,0.0137 -0.0114,0.0258 -0.0217,0.047 -0.008,0.0171 -0.0166,0.034 -0.0248,0.0512 0.0116,0.0219 0.024,0.0495 0.0362,0.076 0.0244,-0.0154 0.0441,-0.0273 0.0667,-0.0413 -0.0225,-0.0435 -0.0404,-0.088 -0.0563,-0.13281 z m 0.0563,0.13281 c 0.006,0.0115 0.0123,0.0227 0.0186,0.0341 0.0344,-0.0287 0.0648,-0.0523 0.10594,-0.0899 0.0629,-0.0574 -0.0147,-0.0126 -0.12454,0.0558 z m 0.0186,0.0341 c -0.0205,0.017 -0.0448,0.0389 -0.063,0.0532 0.0688,0.15966 0.14291,0.36819 0.2129,0.55398 0.002,-0.0955 0.0138,-0.19491 0.0429,-0.29973 -0.0664,-0.10144 -0.13519,-0.20296 -0.19276,-0.30747 z m -0.063,0.0532 c -0.008,-0.0175 -0.0149,-0.0299 -0.0222,-0.046 -0.038,0.024 -0.0673,0.0417 -0.10387,0.0646 -0.005,0.0106 -0.0101,0.0214 -0.0155,0.032 -0.005,0.009 0.005,-0.0142 0.0114,-0.0295 -0.0465,0.0291 -0.1025,0.0654 -0.13281,0.0827 -0.0108,0.0158 -0.0183,0.0409 -0.0269,0.063 0.0554,-0.0174 0.13637,-0.0471 0.28991,-0.16692 z m -4.069,2.25775 c -0.0133,0.0156 -0.0276,0.0306 -0.0398,0.047 -0.0493,0.0667 -0.0797,0.20466 -0.0971,0.27544 0.003,-0.003 0.006,-0.005 0.009,-0.007 0.0461,-0.10251 0.0818,-0.21242 0.12764,-0.31522 z m -1.17306,1.07487 c -0.0329,-0.005 -0.065,0.0213 -0.0956,0.0977 -0.0423,0.10563 -0.0715,0.19336 -0.10542,0.28733 0.0672,-0.0328 0.13334,-0.0678 0.1943,-0.11214 0.008,-0.009 0.0136,-0.0127 0.0207,-0.0202 -0.007,-0.0842 -0.0126,-0.16836 -0.0139,-0.2527 z m -0.93948,0.27543 c -0.0679,0.0326 -0.13615,0.0649 -0.15709,0.11576 0.051,-0.0404 0.10309,-0.0796 0.15709,-0.11576 z m -2.08101,1.65365 c -0.0811,-8e-4 -0.18507,0.0103 -0.22737,0.0419 -0.0276,0.0206 -0.0521,0.0448 -0.0786,0.0667 0.1337,-0.0178 0.26695,-0.0373 0.3948,-0.0786 0.0502,-0.0162 -0.008,-0.0292 -0.0889,-0.03 z m -0.77773,0.65836 c -0.0136,10e-4 -0.0474,0.01 -0.0703,0.0139 -0.0144,0.0169 -0.0294,0.0333 -0.0439,0.0501 -0.003,0.005 -0.006,0.0103 -0.008,0.0155 0.0381,-0.0162 0.0773,-0.0294 0.11369,-0.0496 0.043,-0.0239 0.0403,-0.0322 0.009,-0.03 z m -0.12247,0.0796 c -0.003,10e-4 -0.006,0.002 -0.008,0.004 -0.0245,0.0285 -0.0491,0.0572 -0.0739,0.0853 -0.018,0.0199 -0.0237,0.10166 -0.01,0.0791 0.0335,-0.0543 0.0615,-0.11179 0.092,-0.16794 z m -0.008,0.004 c 0.006,-0.006 0.0111,-0.0127 0.0165,-0.0191 0.008,-0.0156 0.0175,-0.0308 0.0258,-0.0465 -0.14104,0.0291 -0.38306,0.0975 -0.49713,0.13746 -0.0299,0.0104 -0.0644,0.0589 -0.0915,0.0956 0.18366,-0.0529 0.37161,-0.0948 0.54622,-0.16744 z m -1.41748,0.81184 c -0.008,0.009 -0.014,0.019 -0.0217,0.0284 0.004,-0.003 0.0106,-0.007 0.0145,-0.009 0.003,-0.006 0.004,-0.0129 0.007,-0.0191 z" />
            <path
               style="fill:#ffffff;stroke-width:0.264583"
               id="path647"
               d="m -406.32177,179.57411 c 3.92204,-4.13166 7.82029,-8.2854 11.74417,-12.41562 -0.58375,-0.8865 1.66017,-1.15074 1.6204,-2.01058 -0.007,-0.14519 -0.29662,0.0422 -0.41904,0.12055 -0.6233,0.39893 -1.20779,0.85576 -1.7999,1.29966 -0.73811,0.55334 -1.45638,1.13271 -2.19025,1.69166 -0.904,0.68853 -1.8155,1.36715 -2.72325,2.05072 -2.24856,1.65425 -4.43125,3.40003 -6.79754,4.88731 -0.14055,0.0883 -0.28406,0.1798 -0.44315,0.22724 -0.0877,0.0261 -0.32362,0.0636 -0.27414,-0.0134 0.17939,-0.27902 0.48175,-0.45612 0.72262,-0.68418 1.59311,-1.5364 0.77155,-0.75889 2.4667,-2.33039 0,0 -0.64322,0.25184 -0.64322,0.25184 v 0 c -1.70501,1.57946 -0.87559,0.79693 -2.48984,2.34593 -0.22287,0.28033 -0.53672,0.50803 -0.6686,0.841 -0.04,0.10098 0.22549,0.0714 0.32471,0.0272 0.57046,-0.25399 1.10813,-0.57797 1.64154,-0.90264 2.3737,-1.44477 4.48695,-3.27226 6.75009,-4.87368 0.44831,-0.33642 4.33343,-3.23817 4.97825,-3.76929 0.21039,-0.17329 0.36912,-0.4014 0.56257,-0.59342 0.10431,-0.10354 0.34583,-0.43861 0.32995,-0.2925 -0.0903,0.83103 -1.77634,1.13606 -1.55355,1.9686 -3.92817,4.15546 -7.83705,8.32995 -11.81293,12.43949 0,0 0.67441,-0.26555 0.67441,-0.26555 z" />
          </g>
          <rect
             style="fill:#00ffff;stroke-width:0.264583"
             id="rect142"
             width="202.55447"
             height="44.594662"
             x="-447.37335"
             y="294.83765" />
          <rect
             style="fill:#00ffff;stroke-width:0.264583"
             id="rect144"
             width="120.19502"
             height="11.012699"
             x="-385.86093"
             y="334.56677" />
        </g>
      </g>
      <rect
         style="fill:#ff7f2a;stroke-width:0.25801"
         id="rect80"
         width="14.007331"
         height="6.8740835"
         x="13.41883"
         y="69.250481"
         ry="1.702154" />
      <text
         xml:space="preserve"
         style="font-style:normal;font-variant:normal;font-weight:normal;font-stretch:normal;font-size:2.66257px;line-height:1.25;font-family:'Kristen ITC';-inkscape-font-specification:'Kristen ITC';fill:#ffffff;fill-opacity:1;stroke:none;stroke-width:0.0665642"
         x="14.396413"
         y="68.953781"
         id="text76"
         transform="scale(0.95752773,1.0443562)"><tspan
           id="tspan74"
           x="14.396413"
           y="68.953781"
           style="font-style:normal;font-variant:normal;font-weight:normal;font-stretch:normal;font-family:'Kristen ITC';-inkscape-font-specification:'Kristen ITC';fill:#ffffff;stroke-width:0.0665642"
           sodipodi:role="line">Apartmani </tspan><tspan
           x="14.396413"
           y="72.28199"
           style="font-style:normal;font-variant:normal;font-weight:normal;font-stretch:normal;font-family:'Kristen ITC';-inkscape-font-specification:'Kristen ITC';fill:#ffffff;stroke-width:0.0665642"
           id="tspan78"
           sodipodi:role="line">   Sunce</tspan></text>
    </g>
  </g>
</svg>
